<svg width="1920" height="1080" viewBox="0 0 1920 1080" fill="none" xmlns="http://www.w3.org/2000/svg">
<g clip-path="url(#clip0_54_19)">
<rect width="1920" height="1080" fill="white"/>
<path d="M1510.27 137.224C1496.14 135.206 1495.47 134.533 1502.2 133.86C1514.98 131.841 1544.59 134.533 1565.45 139.243C1613.91 150.683 1657.65 180.292 1704.08 232.108L1716.19 246.239L1733.69 243.547C1808.38 231.435 1885.1 240.856 1949.02 270.465C1966.52 278.54 1994.11 294.69 1997.48 298.728C1998.82 300.073 2000.84 308.822 2002.19 317.57C2006.9 349.197 2004.88 372.75 1994.78 390.919C1989.4 401.013 1989.4 403.705 1992.76 412.453C1995.46 419.182 2003.53 423.892 2010.93 423.892C2027.08 423.892 2043.91 398.321 2051.98 362.656L2055.35 348.524L2061.4 355.254C2095.72 393.611 2122.64 446.772 2126.68 484.456L2128.02 494.55L2121.97 485.802C2111.87 470.325 2102.45 460.231 2089.67 451.483C2066.79 436.005 2042.56 431.295 1978.63 427.93C1920.76 424.565 1887.79 419.855 1855.49 409.088C1800.31 390.919 1772.04 367.366 1706.77 280.558C1677.83 242.201 1659.66 221.341 1641.5 203.844C1601.79 165.488 1562.09 145.3 1510.27 137.224Z" fill="#F40175"/>
<path d="M1537.87 322.952C1509.61 283.922 1491.44 223.358 1495.47 178.272L1496.82 164.141L1503.55 165.486C1515.66 167.505 1536.52 175.58 1546.62 181.637C1573.53 197.787 1585.65 219.994 1597.09 275.174C1600.45 291.324 1605.16 310.166 1607.18 316.223C1610.55 326.317 1623.33 349.869 1634.1 364.674C1641.5 375.441 1636.79 380.824 1619.97 379.478C1594.39 376.786 1560.08 353.234 1537.87 322.952Z" fill="#F40175"/>
<path d="M1977.31 615.678C1844.07 561.844 1796.96 515.412 1796.96 436.679C1796.96 425.239 1797.63 415.818 1797.63 415.818C1798.31 415.818 1803.02 419.856 1809.07 424.566C1835.99 446.1 1866.27 455.521 1950.39 467.634C1999.51 475.036 2027.78 480.42 2053.35 489.168C2134.77 516.085 2185.24 571.265 2197.35 645.96C2200.72 667.494 2198.7 708.543 2193.32 730.076C2188.61 746.9 2175.15 777.854 2171.78 778.527C2171.11 778.527 2169.76 775.163 2169.76 769.779C2168.42 741.516 2154.29 714.599 2130.73 693.738C2102.47 669.513 2066.13 651.344 1977.31 615.678Z" fill="#F40175"/>
<path d="M1883.09 637.882C1881.74 627.788 1878.38 615.003 1876.36 609.619L1872.99 599.525L1879.05 606.928C1887.8 617.022 1894.53 629.134 1900.58 645.957C1905.29 658.743 1905.29 662.781 1905.29 683.642C1905.29 703.829 1904.62 708.54 1900.58 719.98C1893.86 738.149 1885.78 750.934 1872.32 765.066C1848.1 789.964 1816.47 803.423 1771.38 809.479C1763.31 810.152 1740.43 812.171 1720.24 813.517C1669.77 816.209 1636.12 821.592 1605.84 832.359C1601.8 833.705 1597.77 835.051 1597.09 834.378C1595.75 833.032 1616.61 820.919 1633.43 812.844C1656.98 801.404 1681.21 795.348 1734.37 785.927C1760.62 781.889 1787.53 776.506 1794.26 773.814C1860.88 752.953 1893.86 701.138 1883.09 637.882Z" fill="#F40175"/>
<path d="M1442.99 952.146C1492.79 910.425 1554.02 880.816 1610.55 871.395C1634.78 867.357 1675.15 868.703 1697.36 874.759C1733.02 884.181 1765.32 904.368 1782.15 929.267C1798.3 953.492 1805.7 974.353 1813.1 1020.79C1815.79 1038.95 1819.16 1057.8 1819.83 1061.83C1825.21 1086.06 1835.98 1104.9 1849.44 1115C1870.3 1130.47 1906.64 1131.15 1942.3 1117.69C1948.36 1115.67 1953.74 1113.65 1953.74 1114.32C1955.09 1115.67 1936.92 1127.78 1924.81 1133.84C1907.99 1142.59 1894.53 1145.28 1876.36 1145.28C1844.06 1145.28 1816.47 1128.45 1794.26 1094.81C1789.55 1088.08 1780.13 1068.56 1772.05 1050.39C1748.5 995.887 1736.39 979.737 1708.8 961.567C1684.57 946.09 1653.62 942.725 1630.07 954.165C1599.11 968.97 1591.04 1008.67 1612.57 1032.9C1621.32 1042.99 1637.47 1051.07 1650.93 1053.09C1675.82 1056.45 1697.36 1036.94 1697.36 1012.04C1697.36 995.887 1691.3 986.466 1675.15 979.064C1653.62 969.643 1630.07 980.409 1630.74 1001.27C1630.74 1010.02 1634.78 1015.4 1643.52 1019.44C1648.91 1022.13 1648.91 1022.13 1644.87 1021.46C1625.35 1017.42 1620.64 993.195 1636.12 977.718C1654.96 958.876 1694.67 966.951 1708.13 993.195C1713.51 1003.96 1714.18 1025.5 1709.47 1038.95C1698.03 1068.56 1665.73 1084.04 1632.76 1075.29C1610.55 1069.24 1601.13 1063.18 1574.21 1035.59C1527.11 987.139 1508.94 977.718 1441.65 967.624L1428.86 965.605L1442.99 952.146Z" fill="#F40175"/>
<path fill-rule="evenodd" clip-rule="evenodd" d="M1307.06 104.936C1463.86 295.375 1487.41 355.928 1499.53 372.079C1509.62 385.537 1505.58 398.323 1488.76 407.744C1479.34 413.127 1459.82 418.511 1450.4 418.511C1439.64 418.511 1426.85 413.127 1418.1 404.379C1412.05 398.323 1385.8 359.966 1326.58 267.774C1281.5 197.117 1243.14 138.572 1242.47 137.899C1239.78 136.553 1239.78 136.553 1321.87 283.252C1373.69 375.443 1390.51 408.417 1390.51 412.454C1390.51 421.202 1387.82 425.913 1377.05 438.026C1358.88 458.214 1350.81 481.093 1344.75 528.871C1338.02 582.032 1319.85 619.716 1268.04 683.644C1237.76 721.328 1233.05 728.058 1225.64 743.535C1216.22 762.377 1213.53 773.144 1212.18 797.369C1210.84 822.941 1213.53 839.091 1220.93 863.317C1227.66 884.85 1235.06 898.982 1253.23 926.572C1268.71 950.797 1278.13 968.967 1278.13 975.697C1278.13 981.08 1279.48 981.08 1303.7 975.697C1361.58 962.238 1409.35 939.358 1435.6 911.095C1451.75 893.599 1455.79 884.177 1455.79 859.952C1455.79 844.475 1455.11 841.11 1451.07 831.689C1444.35 816.885 1431.56 804.772 1403.97 785.93C1367.63 761.031 1352.15 740.843 1348.12 713.926C1344.75 691.047 1348.79 675.569 1368.98 633.175C1389.84 589.434 1395.22 571.265 1398.59 526.852C1400.61 498.589 1403.97 487.149 1412.05 478.401C1420.79 468.98 1428.2 465.616 1449.06 462.924C1483.38 458.213 1505.58 449.465 1523.08 432.642C1538.56 418.511 1545.29 404.379 1545.96 383.518L1546.63 368.041L1537.88 358.62C1506.26 322.282 1286.2 76 1284.18 76C1283.51 76 1294.28 88.7857 1307.06 104.936ZM1295.63 826.306C1303.03 813.52 1298.99 797.369 1286.88 789.294C1275.44 781.892 1257.94 785.257 1257.94 795.351C1257.94 798.042 1259.29 800.734 1263.33 802.08C1269.38 805.445 1270.06 808.809 1265.35 816.212C1260.64 823.614 1260.64 830.343 1266.69 835.054C1276.11 842.456 1288.9 838.418 1295.63 826.306Z" fill="#F40175"/>
<path fill-rule="evenodd" clip-rule="evenodd" d="M1568.16 472.341C1552.01 477.052 1536.54 494.548 1531.83 512.044C1529.13 522.811 1530.48 542.326 1535.19 548.382C1542.59 557.803 1549.32 560.495 1568.16 560.495C1605.17 560.495 1636.8 544.345 1640.17 524.83C1643.53 508.679 1629.4 486.473 1609.88 476.379C1599.79 470.995 1578.93 468.977 1568.16 472.341ZM1611.23 505.988C1616.61 497.913 1614.6 489.164 1604.5 483.108C1586.33 471.668 1558.74 481.089 1558.74 498.585C1558.74 507.334 1572.87 516.755 1586.33 516.755C1595.08 516.755 1607.19 511.371 1611.23 505.988Z" fill="#F40175"/>
<path d="M418.324 323.401C255.022 819 -147.268 929.28 -328.001 922.471L-136.149 714.599C-5.88788 804.407 287.775 491.22 418.324 323.401Z" fill="#F40175"/>
<path d="M931 753.272C1636.09 327.938 2161.46 762.535 2336 1033H1916.06C1882.87 724.745 1245.53 718.075 931 753.272Z" fill="#F40175"/>
<path d="M759.301 440.477C230.691 644.966 -276.714 642.695 -378.595 527.77L-58.5534 252.868C-13.6597 188.013 48.0284 100.992 -64.3689 271.745C-176.766 442.498 495.076 396.562 759.301 440.477Z" fill="#F40175"/>
</g>
<defs>
<clipPath id="clip0_54_19">
<rect width="1920" height="1080" fill="white"/>
</clipPath>
</defs>
</svg>
