<svg width="1920" height="1080" viewBox="0 0 1920 1080" fill="none" xmlns="http://www.w3.org/2000/svg">
<g clip-path="url(#clip0_54_19)">
<rect width="1920" height="1080" fill="white"/>
<path d="M418.324 323.401C255.022 819 -147.268 929.28 -328.001 922.471L-136.149 714.599C-5.88788 804.407 287.775 491.22 418.324 323.401Z" fill="black" stroke="black"/>
<path d="M931 753.272C1636.09 327.938 2161.46 762.535 2336 1033H1916.06C1882.87 724.745 1245.53 718.075 931 753.272Z" fill="black" stroke="black"/>
<path d="M1480 270.27C1735.44 463.627 2011.52 541.333 2084.76 494.732L1953.61 295.56C1939.31 253.333 1919.33 196.449 1953.84 306.722C1988.35 416.996 1630.42 287.513 1480 270.27Z" fill="black" stroke="black"/>
<path d="M759.301 440.477C230.691 644.966 -276.714 642.695 -378.595 527.77L-58.5534 252.868C-13.6597 188.013 48.0284 100.992 -64.3689 271.745C-176.766 442.498 495.076 396.562 759.301 440.477Z" fill="black" stroke="black"/>
</g>
<defs>
<clipPath id="clip0_54_19">
<rect width="1920" height="1080" fill="white"/>
</clipPath>
</defs>
</svg>
