<svg width="1920" height="1080" viewBox="0 0 1920 1080" fill="none" xmlns="http://www.w3.org/2000/svg">
<g clip-path="url(#clip0_72_132)">
<rect width="1920" height="1080" fill="#FF007A"/>
<g opacity="0.5" clip-path="url(#clip1_72_132)">
<path d="M206.154 254.638C202.585 254.13 202.416 253.961 204.115 253.792C207.344 253.284 214.821 253.961 220.089 255.146C232.324 258.023 243.37 265.47 255.095 278.502L258.154 282.056L262.572 281.379C281.435 278.332 300.808 280.702 316.951 288.149C321.37 290.18 328.337 294.242 329.187 295.257C329.527 295.596 330.036 297.796 330.376 299.996C331.566 307.951 331.056 313.874 328.507 318.444C327.148 320.983 327.148 321.66 327.997 323.86C328.677 325.552 330.716 326.737 332.585 326.737C336.664 326.737 340.912 320.306 342.951 311.336L343.801 307.781L345.331 309.474C353.997 319.121 360.795 332.491 361.814 341.969L362.154 344.508L360.625 342.308C358.076 338.415 355.697 335.876 352.468 333.676C346.69 329.783 340.572 328.599 324.429 327.752C309.814 326.906 301.487 325.721 293.331 323.014C279.396 318.444 272.259 312.52 255.775 290.687C248.468 281.04 243.88 275.794 239.291 271.393C229.265 261.746 219.239 256.669 206.154 254.638Z" fill="white"/>
<path d="M332.764 276.132C333.103 269.7 333.953 265.469 335.822 261.576C336.502 260.053 337.182 258.699 337.352 258.699C337.522 258.699 337.182 259.884 336.672 261.238C335.313 264.961 335.143 270.208 335.992 276.132C337.182 283.748 337.692 284.763 345.849 293.056C349.587 296.949 354.005 301.857 355.705 303.888L358.594 307.611L355.705 304.904C352.136 301.519 343.979 295.087 342.11 294.241C340.92 293.564 340.75 293.564 339.901 294.41C339.221 295.087 339.051 296.103 339.051 301.011C338.881 308.627 337.862 313.366 335.313 318.274C333.953 320.813 333.783 320.305 334.973 317.428C335.822 315.228 335.992 314.212 335.992 306.935C335.992 292.21 334.293 288.656 323.927 282.732C321.378 281.209 316.96 279.009 314.411 277.824C311.692 276.639 309.652 275.624 309.822 275.624C310.162 275.285 320.188 278.163 324.097 279.855C330.045 282.225 331.064 282.394 331.744 282.225C332.254 281.717 332.594 280.363 332.764 276.132Z" fill="white"/>
<path d="M213.121 301.349C205.983 291.533 201.395 276.301 202.415 264.961L202.755 261.407L204.454 261.746C207.513 262.253 212.781 264.284 215.33 265.808C222.127 269.87 225.186 275.455 228.075 289.333C228.925 293.395 230.114 298.134 230.624 299.657C231.474 302.196 234.702 308.119 237.421 311.843C239.291 314.551 238.101 315.905 233.853 315.566C227.395 314.889 218.729 308.966 213.121 301.349Z" fill="white"/>
<path d="M324.089 374.972C290.442 361.433 278.547 349.755 278.547 329.953C278.547 327.076 278.717 324.706 278.717 324.706C278.887 324.706 280.076 325.722 281.606 326.906C288.403 332.322 296.05 334.692 317.292 337.738C329.697 339.6 336.834 340.954 343.292 343.154C363.854 349.924 376.599 363.802 379.658 382.588C380.508 388.004 379.998 398.328 378.638 403.744C377.449 407.975 374.05 415.761 373.2 415.93C373.031 415.93 372.691 415.084 372.691 413.73C372.351 406.621 368.782 399.852 362.834 394.605C355.697 388.512 346.521 383.942 324.089 374.972Z" fill="white"/>
<path d="M300.3 380.557C299.96 378.019 299.111 374.803 298.601 373.449L297.751 370.91L299.281 372.772C301.49 375.311 303.189 378.357 304.719 382.588C305.908 385.804 305.908 386.819 305.908 392.066C305.908 397.143 305.738 398.328 304.719 401.205C303.019 405.775 300.98 408.991 297.581 412.545C291.464 418.807 283.477 422.192 272.091 423.715C270.052 423.884 264.274 424.392 259.176 424.731C246.431 425.408 237.934 426.762 230.287 429.469C229.268 429.808 228.248 430.146 228.078 429.977C227.738 429.639 233.006 426.592 237.255 424.561C243.202 421.684 249.32 420.161 262.745 417.791C269.372 416.776 276.17 415.422 277.869 414.745C294.693 409.498 303.019 396.466 300.3 380.557Z" fill="white"/>
<path d="M315.761 407.807C311.343 398.16 310.323 389.02 312.702 380.389C313.042 379.543 313.382 378.696 313.722 378.696C314.062 378.696 315.081 379.204 316.101 379.881C318.14 381.235 322.388 383.604 333.264 389.528C347.029 396.975 354.846 402.729 360.284 409.33C365.042 415.084 367.931 421.685 369.29 429.809C370.14 434.378 369.63 445.379 368.441 449.949C364.702 464.335 356.205 475.844 343.8 482.444C341.931 483.46 340.401 484.137 340.232 484.137C340.062 484.137 340.741 482.444 341.761 480.414C345.839 471.782 346.349 463.489 343.29 454.18C341.421 448.426 337.513 441.487 329.696 429.809C320.349 416.269 318.14 412.715 315.761 407.807Z" fill="white"/>
<path d="M189.162 459.596C201.738 449.103 217.202 441.656 231.476 439.287C237.594 438.271 247.79 438.61 253.398 440.133C262.404 442.502 270.561 447.58 274.809 453.842C278.888 459.935 280.757 465.181 282.626 476.859C283.306 481.429 284.156 486.168 284.326 487.183C285.685 493.276 288.404 498.015 291.803 500.554C297.071 504.446 306.247 504.616 315.254 501.231C316.783 500.723 318.143 500.215 318.143 500.385C318.483 500.723 313.894 503.769 310.836 505.293C306.587 507.493 303.189 508.17 298.6 508.17C290.443 508.17 283.476 503.939 277.868 495.476C276.679 493.784 274.3 488.876 272.26 484.306C266.313 470.597 263.254 466.535 256.287 461.966C250.169 458.073 242.352 457.227 236.404 460.104C228.587 463.827 226.548 473.813 231.986 479.906C234.195 482.444 238.273 484.475 241.672 484.983C247.96 485.829 253.398 480.921 253.398 474.659C253.398 470.597 251.868 468.228 247.79 466.366C242.352 463.997 236.404 466.704 236.574 471.951C236.574 474.151 237.594 475.505 239.803 476.521C241.162 477.198 241.162 477.198 240.143 477.029C235.215 476.013 234.025 469.92 237.934 466.027C242.692 461.289 252.718 463.32 256.117 469.92C257.476 472.628 257.646 478.044 256.456 481.429C253.568 488.876 245.411 492.768 237.084 490.568C231.476 489.045 229.097 487.522 222.3 480.583C210.404 468.397 205.816 466.027 188.823 463.489L185.594 462.981L189.162 459.596Z" fill="white"/>
<path fill-rule="evenodd" clip-rule="evenodd" d="M99.7775 187.278C139.372 235.174 200.379 309.643 203.438 313.705C205.987 317.09 204.967 320.305 200.719 322.675C198.34 324.029 193.412 325.383 191.032 325.383C188.313 325.383 185.085 324.029 182.876 321.829C181.346 320.305 174.719 310.658 159.764 287.472C148.379 269.701 138.693 254.976 138.523 254.807C137.843 254.469 137.843 254.469 158.575 291.364C171.66 314.551 175.908 322.844 175.908 323.86C175.908 326.06 175.229 327.245 172.51 330.291C167.921 335.368 165.882 341.123 164.353 353.139C162.653 366.51 158.065 375.988 144.98 392.066C137.333 401.544 136.144 403.236 134.274 407.129C131.895 411.868 131.215 414.576 130.876 420.669C130.536 427.1 131.215 431.162 133.085 437.255C134.784 442.671 136.653 446.225 141.242 453.164C145.15 459.257 147.529 463.827 147.529 465.519C147.529 466.873 147.869 466.873 153.987 465.519C168.601 462.134 180.666 456.38 187.294 449.271C191.372 444.871 192.392 442.502 192.392 436.409C192.392 432.516 192.222 431.67 191.202 429.3C189.503 425.577 186.274 422.53 179.307 417.792C170.13 411.529 166.222 406.452 165.202 399.682C164.353 393.928 165.372 390.035 170.47 379.373C175.738 368.372 177.098 363.802 177.947 352.632C178.457 345.523 179.307 342.646 181.346 340.446C183.555 338.076 185.425 337.23 190.693 336.553C199.359 335.368 204.967 333.168 209.385 328.937C213.294 325.383 214.993 321.829 215.163 316.582L215.333 312.689L213.124 310.32C205.137 301.181 94.5096 180 93.9997 180C93.8298 180 96.5488 183.216 99.7775 187.278ZM151.947 427.946C153.817 424.731 152.797 420.669 149.738 418.638C146.849 416.776 142.431 417.622 142.431 420.161C142.431 420.838 142.771 421.515 143.791 421.853C145.32 422.7 145.49 423.546 144.3 425.408C143.111 427.269 143.111 428.962 144.64 430.147C147.019 432.008 150.248 430.993 151.947 427.946Z" fill="white"/>
<path fill-rule="evenodd" clip-rule="evenodd" d="M220.773 338.923C216.694 340.107 212.786 344.508 211.596 348.908C210.917 351.616 211.257 356.524 212.446 358.047C214.315 360.417 216.015 361.094 220.773 361.094C230.119 361.094 238.106 357.032 238.956 352.124C239.806 348.062 236.237 342.477 231.309 339.938C228.76 338.584 223.492 338.076 220.773 338.923ZM231.649 347.385C233.008 345.354 232.498 343.154 229.949 341.63C225.361 338.753 218.394 341.123 218.394 345.523C218.394 347.723 221.962 350.093 225.361 350.093C227.57 350.093 230.629 348.739 231.649 347.385Z" fill="white"/>
</g>
<g opacity="0.5" clip-path="url(#clip2_72_132)">
<path d="M575.154 254.638C571.585 254.13 571.416 253.961 573.115 253.792C576.344 253.284 583.821 253.961 589.089 255.146C601.324 258.023 612.37 265.47 624.095 278.502L627.154 282.056L631.572 281.379C650.435 278.332 669.808 280.702 685.951 288.149C690.37 290.18 697.337 294.242 698.187 295.257C698.527 295.596 699.036 297.796 699.376 299.996C700.566 307.951 700.056 313.874 697.507 318.444C696.148 320.983 696.148 321.66 696.997 323.86C697.677 325.552 699.716 326.737 701.585 326.737C705.664 326.737 709.912 320.306 711.951 311.336L712.801 307.781L714.331 309.474C722.997 319.121 729.795 332.491 730.814 341.969L731.154 344.508L729.625 342.308C727.076 338.415 724.697 335.876 721.468 333.676C715.69 329.783 709.572 328.599 693.429 327.752C678.814 326.906 670.487 325.721 662.331 323.014C648.396 318.444 641.259 312.52 624.775 290.687C617.468 281.04 612.88 275.794 608.291 271.393C598.265 261.746 588.239 256.669 575.154 254.638Z" fill="white"/>
<path d="M701.764 276.132C702.103 269.7 702.953 265.469 704.822 261.576C705.502 260.053 706.182 258.699 706.352 258.699C706.522 258.699 706.182 259.884 705.672 261.238C704.313 264.961 704.143 270.208 704.992 276.132C706.182 283.748 706.692 284.763 714.849 293.056C718.587 296.949 723.005 301.857 724.705 303.888L727.594 307.611L724.705 304.904C721.136 301.519 712.979 295.087 711.11 294.241C709.92 293.564 709.75 293.564 708.901 294.41C708.221 295.087 708.051 296.103 708.051 301.011C707.881 308.627 706.862 313.366 704.313 318.274C702.953 320.813 702.783 320.305 703.973 317.428C704.822 315.228 704.992 314.212 704.992 306.935C704.992 292.21 703.293 288.656 692.927 282.732C690.378 281.209 685.96 279.009 683.411 277.824C680.692 276.639 678.652 275.624 678.822 275.624C679.162 275.285 689.188 278.163 693.097 279.855C699.045 282.225 700.064 282.394 700.744 282.225C701.254 281.717 701.594 280.363 701.764 276.132Z" fill="white"/>
<path d="M582.121 301.349C574.983 291.533 570.395 276.301 571.415 264.961L571.755 261.407L573.454 261.746C576.513 262.253 581.781 264.284 584.33 265.808C591.127 269.87 594.186 275.455 597.075 289.333C597.925 293.395 599.114 298.134 599.624 299.657C600.474 302.196 603.702 308.119 606.421 311.843C608.291 314.551 607.101 315.905 602.853 315.566C596.395 314.889 587.729 308.966 582.121 301.349Z" fill="white"/>
<path d="M693.089 374.972C659.442 361.433 647.547 349.755 647.547 329.953C647.547 327.076 647.717 324.706 647.717 324.706C647.887 324.706 649.076 325.722 650.606 326.906C657.403 332.322 665.05 334.692 686.292 337.738C698.697 339.6 705.834 340.954 712.292 343.154C732.854 349.924 745.599 363.802 748.658 382.588C749.508 388.004 748.998 398.328 747.638 403.744C746.449 407.975 743.05 415.761 742.2 415.93C742.031 415.93 741.691 415.084 741.691 413.73C741.351 406.621 737.782 399.852 731.834 394.605C724.697 388.512 715.521 383.942 693.089 374.972Z" fill="white"/>
<path d="M669.3 380.557C668.96 378.019 668.111 374.803 667.601 373.449L666.751 370.91L668.281 372.772C670.49 375.311 672.189 378.357 673.719 382.588C674.908 385.804 674.908 386.819 674.908 392.066C674.908 397.143 674.738 398.328 673.719 401.205C672.019 405.775 669.98 408.991 666.581 412.545C660.464 418.807 652.477 422.192 641.091 423.715C639.052 423.884 633.274 424.392 628.176 424.731C615.431 425.408 606.934 426.762 599.287 429.469C598.268 429.808 597.248 430.146 597.078 429.977C596.738 429.639 602.006 426.592 606.255 424.561C612.202 421.684 618.32 420.161 631.745 417.791C638.372 416.776 645.17 415.422 646.869 414.745C663.693 409.498 672.019 396.466 669.3 380.557Z" fill="white"/>
<path d="M684.761 407.807C680.343 398.16 679.323 389.02 681.702 380.389C682.042 379.543 682.382 378.696 682.722 378.696C683.062 378.696 684.081 379.204 685.101 379.881C687.14 381.235 691.388 383.604 702.264 389.528C716.029 396.975 723.846 402.729 729.284 409.33C734.042 415.084 736.931 421.685 738.29 429.809C739.14 434.378 738.63 445.379 737.441 449.949C733.702 464.335 725.205 475.844 712.8 482.444C710.931 483.46 709.401 484.137 709.232 484.137C709.062 484.137 709.741 482.444 710.761 480.414C714.839 471.782 715.349 463.489 712.29 454.18C710.421 448.426 706.513 441.487 698.696 429.809C689.349 416.269 687.14 412.715 684.761 407.807Z" fill="white"/>
<path d="M558.162 459.596C570.738 449.103 586.202 441.656 600.476 439.287C606.594 438.271 616.79 438.61 622.398 440.133C631.404 442.502 639.561 447.58 643.809 453.842C647.888 459.935 649.757 465.181 651.626 476.859C652.306 481.429 653.156 486.168 653.326 487.183C654.685 493.276 657.404 498.015 660.803 500.554C666.071 504.446 675.247 504.616 684.254 501.231C685.783 500.723 687.143 500.215 687.143 500.385C687.483 500.723 682.894 503.769 679.836 505.293C675.587 507.493 672.189 508.17 667.6 508.17C659.443 508.17 652.476 503.939 646.868 495.476C645.679 493.784 643.3 488.876 641.26 484.306C635.313 470.597 632.254 466.535 625.287 461.966C619.169 458.073 611.352 457.227 605.404 460.104C597.587 463.827 595.548 473.813 600.986 479.906C603.195 482.444 607.273 484.475 610.672 484.983C616.96 485.829 622.398 480.921 622.398 474.659C622.398 470.597 620.868 468.228 616.79 466.366C611.352 463.997 605.404 466.704 605.574 471.951C605.574 474.151 606.594 475.505 608.803 476.521C610.162 477.198 610.162 477.198 609.143 477.029C604.215 476.013 603.025 469.92 606.934 466.027C611.692 461.289 621.718 463.32 625.117 469.92C626.476 472.628 626.646 478.044 625.456 481.429C622.568 488.876 614.411 492.768 606.084 490.568C600.476 489.045 598.097 487.522 591.3 480.583C579.404 468.397 574.816 466.027 557.823 463.489L554.594 462.981L558.162 459.596Z" fill="white"/>
<path fill-rule="evenodd" clip-rule="evenodd" d="M468.778 187.278C508.372 235.174 569.379 309.643 572.438 313.705C574.987 317.09 573.967 320.305 569.719 322.675C567.34 324.029 562.412 325.383 560.032 325.383C557.313 325.383 554.085 324.029 551.876 321.829C550.346 320.305 543.719 310.658 528.764 287.472C517.379 269.701 507.693 254.976 507.523 254.807C506.843 254.469 506.843 254.469 527.575 291.364C540.66 314.551 544.908 322.844 544.908 323.86C544.908 326.06 544.229 327.245 541.51 330.291C536.921 335.368 534.882 341.123 533.353 353.139C531.653 366.51 527.065 375.988 513.98 392.066C506.333 401.544 505.144 403.236 503.274 407.129C500.895 411.868 500.215 414.576 499.876 420.669C499.536 427.1 500.215 431.162 502.085 437.255C503.784 442.671 505.653 446.225 510.242 453.164C514.15 459.257 516.529 463.827 516.529 465.519C516.529 466.873 516.869 466.873 522.987 465.519C537.601 462.134 549.666 456.38 556.294 449.271C560.372 444.871 561.392 442.502 561.392 436.409C561.392 432.516 561.222 431.67 560.202 429.3C558.503 425.577 555.274 422.53 548.307 417.792C539.13 411.529 535.222 406.452 534.202 399.682C533.353 393.928 534.372 390.035 539.47 379.373C544.738 368.372 546.098 363.802 546.947 352.632C547.457 345.523 548.307 342.646 550.346 340.446C552.555 338.076 554.425 337.23 559.693 336.553C568.359 335.368 573.967 333.168 578.385 328.937C582.294 325.383 583.993 321.829 584.163 316.582L584.333 312.689L582.124 310.32C574.137 301.181 463.51 180 463 180C462.83 180 465.549 183.216 468.778 187.278ZM520.947 427.946C522.817 424.731 521.797 420.669 518.738 418.638C515.849 416.776 511.431 417.622 511.431 420.161C511.431 420.838 511.771 421.515 512.791 421.853C514.32 422.7 514.49 423.546 513.3 425.408C512.111 427.269 512.111 428.962 513.64 430.147C516.019 432.008 519.248 430.993 520.947 427.946Z" fill="white"/>
<path fill-rule="evenodd" clip-rule="evenodd" d="M589.773 338.923C585.694 340.107 581.786 344.508 580.596 348.908C579.917 351.616 580.257 356.524 581.446 358.047C583.315 360.417 585.015 361.094 589.773 361.094C599.119 361.094 607.106 357.032 607.956 352.124C608.806 348.062 605.237 342.477 600.309 339.938C597.76 338.584 592.492 338.076 589.773 338.923ZM600.649 347.385C602.008 345.354 601.498 343.154 598.949 341.63C594.361 338.753 587.394 341.123 587.394 345.523C587.394 347.723 590.962 350.093 594.361 350.093C596.57 350.093 599.629 348.739 600.649 347.385Z" fill="white"/>
</g>
<g opacity="0.5" clip-path="url(#clip3_72_132)">
<path d="M944.154 254.638C940.585 254.13 940.416 253.961 942.115 253.792C945.344 253.284 952.821 253.961 958.089 255.146C970.324 258.023 981.37 265.47 993.095 278.502L996.154 282.056L1000.57 281.379C1019.44 278.332 1038.81 280.702 1054.95 288.149C1059.37 290.18 1066.34 294.242 1067.19 295.257C1067.53 295.596 1068.04 297.796 1068.38 299.996C1069.57 307.951 1069.06 313.874 1066.51 318.444C1065.15 320.983 1065.15 321.66 1066 323.86C1066.68 325.552 1068.72 326.737 1070.59 326.737C1074.66 326.737 1078.91 320.306 1080.95 311.336L1081.8 307.781L1083.33 309.474C1092 319.121 1098.79 332.491 1099.81 341.969L1100.15 344.508L1098.62 342.308C1096.08 338.415 1093.7 335.876 1090.47 333.676C1084.69 329.783 1078.57 328.599 1062.43 327.752C1047.81 326.906 1039.49 325.721 1031.33 323.014C1017.4 318.444 1010.26 312.52 993.775 290.687C986.468 281.04 981.88 275.794 977.291 271.393C967.265 261.746 957.239 256.669 944.154 254.638Z" fill="white"/>
<path d="M1070.76 276.132C1071.1 269.7 1071.95 265.469 1073.82 261.576C1074.5 260.053 1075.18 258.699 1075.35 258.699C1075.52 258.699 1075.18 259.884 1074.67 261.238C1073.31 264.961 1073.14 270.208 1073.99 276.132C1075.18 283.748 1075.69 284.763 1083.85 293.056C1087.59 296.949 1092.01 301.857 1093.7 303.888L1096.59 307.611L1093.7 304.904C1090.14 301.519 1081.98 295.087 1080.11 294.241C1078.92 293.564 1078.75 293.564 1077.9 294.41C1077.22 295.087 1077.05 296.103 1077.05 301.011C1076.88 308.627 1075.86 313.366 1073.31 318.274C1071.95 320.813 1071.78 320.305 1072.97 317.428C1073.82 315.228 1073.99 314.212 1073.99 306.935C1073.99 292.21 1072.29 288.656 1061.93 282.732C1059.38 281.209 1054.96 279.009 1052.41 277.824C1049.69 276.639 1047.65 275.624 1047.82 275.624C1048.16 275.285 1058.19 278.163 1062.1 279.855C1068.04 282.225 1069.06 282.394 1069.74 282.225C1070.25 281.717 1070.59 280.363 1070.76 276.132Z" fill="white"/>
<path d="M951.121 301.349C943.983 291.533 939.395 276.301 940.415 264.961L940.755 261.407L942.454 261.746C945.513 262.253 950.781 264.284 953.33 265.808C960.127 269.87 963.186 275.455 966.075 289.333C966.925 293.395 968.114 298.134 968.624 299.657C969.474 302.196 972.702 308.119 975.421 311.843C977.291 314.551 976.101 315.905 971.853 315.566C965.395 314.889 956.729 308.966 951.121 301.349Z" fill="white"/>
<path d="M1062.09 374.972C1028.44 361.433 1016.55 349.755 1016.55 329.953C1016.55 327.076 1016.72 324.706 1016.72 324.706C1016.89 324.706 1018.08 325.722 1019.61 326.906C1026.4 332.322 1034.05 334.692 1055.29 337.738C1067.7 339.6 1074.83 340.954 1081.29 343.154C1101.85 349.924 1114.6 363.802 1117.66 382.588C1118.51 388.004 1118 398.328 1116.64 403.744C1115.45 407.975 1112.05 415.761 1111.2 415.93C1111.03 415.93 1110.69 415.084 1110.69 413.73C1110.35 406.621 1106.78 399.852 1100.83 394.605C1093.7 388.512 1084.52 383.942 1062.09 374.972Z" fill="white"/>
<path d="M1038.3 380.557C1037.96 378.019 1037.11 374.803 1036.6 373.449L1035.75 370.91L1037.28 372.772C1039.49 375.311 1041.19 378.357 1042.72 382.588C1043.91 385.804 1043.91 386.819 1043.91 392.066C1043.91 397.143 1043.74 398.328 1042.72 401.205C1041.02 405.775 1038.98 408.991 1035.58 412.545C1029.46 418.807 1021.48 422.192 1010.09 423.715C1008.05 423.884 1002.27 424.392 997.176 424.731C984.431 425.408 975.934 426.762 968.287 429.469C967.268 429.808 966.248 430.146 966.078 429.977C965.738 429.639 971.006 426.592 975.255 424.561C981.202 421.684 987.32 420.161 1000.74 417.791C1007.37 416.776 1014.17 415.422 1015.87 414.745C1032.69 409.498 1041.02 396.466 1038.3 380.557Z" fill="white"/>
<path d="M1053.76 407.807C1049.34 398.16 1048.32 389.02 1050.7 380.389C1051.04 379.543 1051.38 378.696 1051.72 378.696C1052.06 378.696 1053.08 379.204 1054.1 379.881C1056.14 381.235 1060.39 383.604 1071.26 389.528C1085.03 396.975 1092.85 402.729 1098.28 409.33C1103.04 415.084 1105.93 421.685 1107.29 429.809C1108.14 434.378 1107.63 445.379 1106.44 449.949C1102.7 464.335 1094.21 475.844 1081.8 482.444C1079.93 483.46 1078.4 484.137 1078.23 484.137C1078.06 484.137 1078.74 482.444 1079.76 480.414C1083.84 471.782 1084.35 463.489 1081.29 454.18C1079.42 448.426 1075.51 441.487 1067.7 429.809C1058.35 416.269 1056.14 412.715 1053.76 407.807Z" fill="white"/>
<path d="M927.162 459.596C939.738 449.103 955.202 441.656 969.476 439.287C975.594 438.271 985.79 438.61 991.398 440.133C1000.4 442.502 1008.56 447.58 1012.81 453.842C1016.89 459.935 1018.76 465.181 1020.63 476.859C1021.31 481.429 1022.16 486.168 1022.33 487.183C1023.69 493.276 1026.4 498.015 1029.8 500.554C1035.07 504.446 1044.25 504.616 1053.25 501.231C1054.78 500.723 1056.14 500.215 1056.14 500.385C1056.48 500.723 1051.89 503.769 1048.84 505.293C1044.59 507.493 1041.19 508.17 1036.6 508.17C1028.44 508.17 1021.48 503.939 1015.87 495.476C1014.68 493.784 1012.3 488.876 1010.26 484.306C1004.31 470.597 1001.25 466.535 994.287 461.966C988.169 458.073 980.352 457.227 974.404 460.104C966.587 463.827 964.548 473.813 969.986 479.906C972.195 482.444 976.273 484.475 979.672 484.983C985.96 485.829 991.398 480.921 991.398 474.659C991.398 470.597 989.868 468.228 985.79 466.366C980.352 463.997 974.404 466.704 974.574 471.951C974.574 474.151 975.594 475.505 977.803 476.521C979.162 477.198 979.162 477.198 978.143 477.029C973.215 476.013 972.025 469.92 975.934 466.027C980.692 461.289 990.718 463.32 994.117 469.92C995.476 472.628 995.646 478.044 994.456 481.429C991.568 488.876 983.411 492.768 975.084 490.568C969.476 489.045 967.097 487.522 960.3 480.583C948.404 468.397 943.816 466.027 926.823 463.489L923.594 462.981L927.162 459.596Z" fill="white"/>
<path fill-rule="evenodd" clip-rule="evenodd" d="M837.778 187.278C877.372 235.174 938.379 309.643 941.438 313.705C943.987 317.09 942.967 320.305 938.719 322.675C936.34 324.029 931.412 325.383 929.032 325.383C926.313 325.383 923.085 324.029 920.876 321.829C919.346 320.305 912.719 310.658 897.764 287.472C886.379 269.701 876.693 254.976 876.523 254.807C875.843 254.469 875.843 254.469 896.575 291.364C909.66 314.551 913.908 322.844 913.908 323.86C913.908 326.06 913.229 327.245 910.51 330.291C905.921 335.368 903.882 341.123 902.353 353.139C900.653 366.51 896.065 375.988 882.98 392.066C875.333 401.544 874.144 403.236 872.274 407.129C869.895 411.868 869.215 414.576 868.876 420.669C868.536 427.1 869.215 431.162 871.085 437.255C872.784 442.671 874.653 446.225 879.242 453.164C883.15 459.257 885.529 463.827 885.529 465.519C885.529 466.873 885.869 466.873 891.987 465.519C906.601 462.134 918.666 456.38 925.294 449.271C929.372 444.871 930.392 442.502 930.392 436.409C930.392 432.516 930.222 431.67 929.202 429.3C927.503 425.577 924.274 422.53 917.307 417.792C908.13 411.529 904.222 406.452 903.202 399.682C902.353 393.928 903.372 390.035 908.47 379.373C913.738 368.372 915.098 363.802 915.947 352.632C916.457 345.523 917.307 342.646 919.346 340.446C921.555 338.076 923.425 337.23 928.693 336.553C937.359 335.368 942.967 333.168 947.385 328.937C951.294 325.383 952.993 321.829 953.163 316.582L953.333 312.689L951.124 310.32C943.137 301.181 832.51 180 832 180C831.83 180 834.549 183.216 837.778 187.278ZM889.947 427.946C891.817 424.731 890.797 420.669 887.738 418.638C884.849 416.776 880.431 417.622 880.431 420.161C880.431 420.838 880.771 421.515 881.791 421.853C883.32 422.7 883.49 423.546 882.3 425.408C881.111 427.269 881.111 428.962 882.64 430.147C885.019 432.008 888.248 430.993 889.947 427.946Z" fill="white"/>
<path fill-rule="evenodd" clip-rule="evenodd" d="M958.773 338.923C954.694 340.107 950.786 344.508 949.596 348.908C948.917 351.616 949.257 356.524 950.446 358.047C952.315 360.417 954.015 361.094 958.773 361.094C968.119 361.094 976.106 357.032 976.956 352.124C977.806 348.062 974.237 342.477 969.309 339.938C966.76 338.584 961.492 338.076 958.773 338.923ZM969.649 347.385C971.008 345.354 970.498 343.154 967.949 341.63C963.361 338.753 956.394 341.123 956.394 345.523C956.394 347.723 959.962 350.093 963.361 350.093C965.57 350.093 968.629 348.739 969.649 347.385Z" fill="white"/>
</g>
<g opacity="0.5" clip-path="url(#clip4_72_132)">
<path d="M1313.15 254.638C1309.59 254.13 1309.42 253.961 1311.11 253.792C1314.34 253.284 1321.82 253.961 1327.09 255.146C1339.32 258.023 1350.37 265.47 1362.1 278.502L1365.15 282.056L1369.57 281.379C1388.44 278.332 1407.81 280.702 1423.95 288.149C1428.37 290.18 1435.34 294.242 1436.19 295.257C1436.53 295.596 1437.04 297.796 1437.38 299.996C1438.57 307.951 1438.06 313.874 1435.51 318.444C1434.15 320.983 1434.15 321.66 1435 323.86C1435.68 325.552 1437.72 326.737 1439.59 326.737C1443.66 326.737 1447.91 320.306 1449.95 311.336L1450.8 307.781L1452.33 309.474C1461 319.121 1467.79 332.491 1468.81 341.969L1469.15 344.508L1467.62 342.308C1465.08 338.415 1462.7 335.876 1459.47 333.676C1453.69 329.783 1447.57 328.599 1431.43 327.752C1416.81 326.906 1408.49 325.721 1400.33 323.014C1386.4 318.444 1379.26 312.52 1362.78 290.687C1355.47 281.04 1350.88 275.794 1346.29 271.393C1336.27 261.746 1326.24 256.669 1313.15 254.638Z" fill="white"/>
<path d="M1439.76 276.132C1440.1 269.7 1440.95 265.469 1442.82 261.576C1443.5 260.053 1444.18 258.699 1444.35 258.699C1444.52 258.699 1444.18 259.884 1443.67 261.238C1442.31 264.961 1442.14 270.208 1442.99 276.132C1444.18 283.748 1444.69 284.763 1452.85 293.056C1456.59 296.949 1461.01 301.857 1462.7 303.888L1465.59 307.611L1462.7 304.904C1459.14 301.519 1450.98 295.087 1449.11 294.241C1447.92 293.564 1447.75 293.564 1446.9 294.41C1446.22 295.087 1446.05 296.103 1446.05 301.011C1445.88 308.627 1444.86 313.366 1442.31 318.274C1440.95 320.813 1440.78 320.305 1441.97 317.428C1442.82 315.228 1442.99 314.212 1442.99 306.935C1442.99 292.21 1441.29 288.656 1430.93 282.732C1428.38 281.209 1423.96 279.009 1421.41 277.824C1418.69 276.639 1416.65 275.624 1416.82 275.624C1417.16 275.285 1427.19 278.163 1431.1 279.855C1437.04 282.225 1438.06 282.394 1438.74 282.225C1439.25 281.717 1439.59 280.363 1439.76 276.132Z" fill="white"/>
<path d="M1320.12 301.349C1312.98 291.533 1308.4 276.301 1309.41 264.961L1309.75 261.407L1311.45 261.746C1314.51 262.253 1319.78 264.284 1322.33 265.808C1329.13 269.87 1332.19 275.455 1335.07 289.333C1335.92 293.395 1337.11 298.134 1337.62 299.657C1338.47 302.196 1341.7 308.119 1344.42 311.843C1346.29 314.551 1345.1 315.905 1340.85 315.566C1334.4 314.889 1325.73 308.966 1320.12 301.349Z" fill="white"/>
<path d="M1431.09 374.972C1397.44 361.433 1385.55 349.755 1385.55 329.953C1385.55 327.076 1385.72 324.706 1385.72 324.706C1385.89 324.706 1387.08 325.722 1388.61 326.906C1395.4 332.322 1403.05 334.692 1424.29 337.738C1436.7 339.6 1443.83 340.954 1450.29 343.154C1470.85 349.924 1483.6 363.802 1486.66 382.588C1487.51 388.004 1487 398.328 1485.64 403.744C1484.45 407.975 1481.05 415.761 1480.2 415.93C1480.03 415.93 1479.69 415.084 1479.69 413.73C1479.35 406.621 1475.78 399.852 1469.83 394.605C1462.7 388.512 1453.52 383.942 1431.09 374.972Z" fill="white"/>
<path d="M1407.3 380.557C1406.96 378.019 1406.11 374.803 1405.6 373.449L1404.75 370.91L1406.28 372.772C1408.49 375.311 1410.19 378.357 1411.72 382.588C1412.91 385.804 1412.91 386.819 1412.91 392.066C1412.91 397.143 1412.74 398.328 1411.72 401.205C1410.02 405.775 1407.98 408.991 1404.58 412.545C1398.46 418.807 1390.48 422.192 1379.09 423.715C1377.05 423.884 1371.27 424.392 1366.18 424.731C1353.43 425.408 1344.93 426.762 1337.29 429.469C1336.27 429.808 1335.25 430.146 1335.08 429.977C1334.74 429.639 1340.01 426.592 1344.25 424.561C1350.2 421.684 1356.32 420.161 1369.74 417.791C1376.37 416.776 1383.17 415.422 1384.87 414.745C1401.69 409.498 1410.02 396.466 1407.3 380.557Z" fill="white"/>
<path d="M1422.76 407.807C1418.34 398.16 1417.32 389.02 1419.7 380.389C1420.04 379.543 1420.38 378.696 1420.72 378.696C1421.06 378.696 1422.08 379.204 1423.1 379.881C1425.14 381.235 1429.39 383.604 1440.26 389.528C1454.03 396.975 1461.85 402.729 1467.28 409.33C1472.04 415.084 1474.93 421.685 1476.29 429.809C1477.14 434.378 1476.63 445.379 1475.44 449.949C1471.7 464.335 1463.21 475.844 1450.8 482.444C1448.93 483.46 1447.4 484.137 1447.23 484.137C1447.06 484.137 1447.74 482.444 1448.76 480.414C1452.84 471.782 1453.35 463.489 1450.29 454.18C1448.42 448.426 1444.51 441.487 1436.7 429.809C1427.35 416.269 1425.14 412.715 1422.76 407.807Z" fill="white"/>
<path d="M1296.16 459.596C1308.74 449.103 1324.2 441.656 1338.48 439.287C1344.59 438.271 1354.79 438.61 1360.4 440.133C1369.4 442.502 1377.56 447.58 1381.81 453.842C1385.89 459.935 1387.76 465.181 1389.63 476.859C1390.31 481.429 1391.16 486.168 1391.33 487.183C1392.69 493.276 1395.4 498.015 1398.8 500.554C1404.07 504.446 1413.25 504.616 1422.25 501.231C1423.78 500.723 1425.14 500.215 1425.14 500.385C1425.48 500.723 1420.89 503.769 1417.84 505.293C1413.59 507.493 1410.19 508.17 1405.6 508.17C1397.44 508.17 1390.48 503.939 1384.87 495.476C1383.68 493.784 1381.3 488.876 1379.26 484.306C1373.31 470.597 1370.25 466.535 1363.29 461.966C1357.17 458.073 1349.35 457.227 1343.4 460.104C1335.59 463.827 1333.55 473.813 1338.99 479.906C1341.2 482.444 1345.27 484.475 1348.67 484.983C1354.96 485.829 1360.4 480.921 1360.4 474.659C1360.4 470.597 1358.87 468.228 1354.79 466.366C1349.35 463.997 1343.4 466.704 1343.57 471.951C1343.57 474.151 1344.59 475.505 1346.8 476.521C1348.16 477.198 1348.16 477.198 1347.14 477.029C1342.21 476.013 1341.03 469.92 1344.93 466.027C1349.69 461.289 1359.72 463.32 1363.12 469.92C1364.48 472.628 1364.65 478.044 1363.46 481.429C1360.57 488.876 1352.41 492.768 1344.08 490.568C1338.48 489.045 1336.1 487.522 1329.3 480.583C1317.4 468.397 1312.82 466.027 1295.82 463.489L1292.59 462.981L1296.16 459.596Z" fill="white"/>
<path fill-rule="evenodd" clip-rule="evenodd" d="M1206.78 187.278C1246.37 235.174 1307.38 309.643 1310.44 313.705C1312.99 317.09 1311.97 320.305 1307.72 322.675C1305.34 324.029 1300.41 325.383 1298.03 325.383C1295.31 325.383 1292.08 324.029 1289.88 321.829C1288.35 320.305 1281.72 310.658 1266.76 287.472C1255.38 269.701 1245.69 254.976 1245.52 254.807C1244.84 254.469 1244.84 254.469 1265.57 291.364C1278.66 314.551 1282.91 322.844 1282.91 323.86C1282.91 326.06 1282.23 327.245 1279.51 330.291C1274.92 335.368 1272.88 341.123 1271.35 353.139C1269.65 366.51 1265.07 375.988 1251.98 392.066C1244.33 401.544 1243.14 403.236 1241.27 407.129C1238.9 411.868 1238.22 414.576 1237.88 420.669C1237.54 427.1 1238.22 431.162 1240.08 437.255C1241.78 442.671 1243.65 446.225 1248.24 453.164C1252.15 459.257 1254.53 463.827 1254.53 465.519C1254.53 466.873 1254.87 466.873 1260.99 465.519C1275.6 462.134 1287.67 456.38 1294.29 449.271C1298.37 444.871 1299.39 442.502 1299.39 436.409C1299.39 432.516 1299.22 431.67 1298.2 429.3C1296.5 425.577 1293.27 422.53 1286.31 417.792C1277.13 411.529 1273.22 406.452 1272.2 399.682C1271.35 393.928 1272.37 390.035 1277.47 379.373C1282.74 368.372 1284.1 363.802 1284.95 352.632C1285.46 345.523 1286.31 342.646 1288.35 340.446C1290.56 338.076 1292.42 337.23 1297.69 336.553C1306.36 335.368 1311.97 333.168 1316.39 328.937C1320.29 325.383 1321.99 321.829 1322.16 316.582L1322.33 312.689L1320.12 310.32C1312.14 301.181 1201.51 180 1201 180C1200.83 180 1203.55 183.216 1206.78 187.278ZM1258.95 427.946C1260.82 424.731 1259.8 420.669 1256.74 418.638C1253.85 416.776 1249.43 417.622 1249.43 420.161C1249.43 420.838 1249.77 421.515 1250.79 421.853C1252.32 422.7 1252.49 423.546 1251.3 425.408C1250.11 427.269 1250.11 428.962 1251.64 430.147C1254.02 432.008 1257.25 430.993 1258.95 427.946Z" fill="white"/>
<path fill-rule="evenodd" clip-rule="evenodd" d="M1327.77 338.923C1323.69 340.107 1319.79 344.508 1318.6 348.908C1317.92 351.616 1318.26 356.524 1319.45 358.047C1321.32 360.417 1323.01 361.094 1327.77 361.094C1337.12 361.094 1345.11 357.032 1345.96 352.124C1346.81 348.062 1343.24 342.477 1338.31 339.938C1335.76 338.584 1330.49 338.076 1327.77 338.923ZM1338.65 347.385C1340.01 345.354 1339.5 343.154 1336.95 341.63C1332.36 338.753 1325.39 341.123 1325.39 345.523C1325.39 347.723 1328.96 350.093 1332.36 350.093C1334.57 350.093 1337.63 348.739 1338.65 347.385Z" fill="white"/>
</g>
<g opacity="0.5" clip-path="url(#clip5_72_132)">
<path d="M1682.15 254.638C1678.59 254.13 1678.42 253.961 1680.11 253.792C1683.34 253.284 1690.82 253.961 1696.09 255.146C1708.32 258.023 1719.37 265.47 1731.1 278.502L1734.15 282.056L1738.57 281.379C1757.44 278.332 1776.81 280.702 1792.95 288.149C1797.37 290.18 1804.34 294.242 1805.19 295.257C1805.53 295.596 1806.04 297.796 1806.38 299.996C1807.57 307.951 1807.06 313.874 1804.51 318.444C1803.15 320.983 1803.15 321.66 1804 323.86C1804.68 325.552 1806.72 326.737 1808.59 326.737C1812.66 326.737 1816.91 320.306 1818.95 311.336L1819.8 307.781L1821.33 309.474C1830 319.121 1836.79 332.491 1837.81 341.969L1838.15 344.508L1836.62 342.308C1834.08 338.415 1831.7 335.876 1828.47 333.676C1822.69 329.783 1816.57 328.599 1800.43 327.752C1785.81 326.906 1777.49 325.721 1769.33 323.014C1755.4 318.444 1748.26 312.52 1731.78 290.687C1724.47 281.04 1719.88 275.794 1715.29 271.393C1705.27 261.746 1695.24 256.669 1682.15 254.638Z" fill="white"/>
<path d="M1808.76 276.132C1809.1 269.7 1809.95 265.469 1811.82 261.576C1812.5 260.053 1813.18 258.699 1813.35 258.699C1813.52 258.699 1813.18 259.884 1812.67 261.238C1811.31 264.961 1811.14 270.208 1811.99 276.132C1813.18 283.748 1813.69 284.763 1821.85 293.056C1825.59 296.949 1830.01 301.857 1831.7 303.888L1834.59 307.611L1831.7 304.904C1828.14 301.519 1819.98 295.087 1818.11 294.241C1816.92 293.564 1816.75 293.564 1815.9 294.41C1815.22 295.087 1815.05 296.103 1815.05 301.011C1814.88 308.627 1813.86 313.366 1811.31 318.274C1809.95 320.813 1809.78 320.305 1810.97 317.428C1811.82 315.228 1811.99 314.212 1811.99 306.935C1811.99 292.21 1810.29 288.656 1799.93 282.732C1797.38 281.209 1792.96 279.009 1790.41 277.824C1787.69 276.639 1785.65 275.624 1785.82 275.624C1786.16 275.285 1796.19 278.163 1800.1 279.855C1806.04 282.225 1807.06 282.394 1807.74 282.225C1808.25 281.717 1808.59 280.363 1808.76 276.132Z" fill="white"/>
<path d="M1689.12 301.349C1681.98 291.533 1677.4 276.301 1678.41 264.961L1678.75 261.407L1680.45 261.746C1683.51 262.253 1688.78 264.284 1691.33 265.808C1698.13 269.87 1701.19 275.455 1704.07 289.333C1704.92 293.395 1706.11 298.134 1706.62 299.657C1707.47 302.196 1710.7 308.119 1713.42 311.843C1715.29 314.551 1714.1 315.905 1709.85 315.566C1703.4 314.889 1694.73 308.966 1689.12 301.349Z" fill="white"/>
<path d="M1800.09 374.972C1766.44 361.433 1754.55 349.755 1754.55 329.953C1754.55 327.076 1754.72 324.706 1754.72 324.706C1754.89 324.706 1756.08 325.722 1757.61 326.906C1764.4 332.322 1772.05 334.692 1793.29 337.738C1805.7 339.6 1812.83 340.954 1819.29 343.154C1839.85 349.924 1852.6 363.802 1855.66 382.588C1856.51 388.004 1856 398.328 1854.64 403.744C1853.45 407.975 1850.05 415.761 1849.2 415.93C1849.03 415.93 1848.69 415.084 1848.69 413.73C1848.35 406.621 1844.78 399.852 1838.83 394.605C1831.7 388.512 1822.52 383.942 1800.09 374.972Z" fill="white"/>
<path d="M1776.3 380.557C1775.96 378.019 1775.11 374.803 1774.6 373.449L1773.75 370.91L1775.28 372.772C1777.49 375.311 1779.19 378.357 1780.72 382.588C1781.91 385.804 1781.91 386.819 1781.91 392.066C1781.91 397.143 1781.74 398.328 1780.72 401.205C1779.02 405.775 1776.98 408.991 1773.58 412.545C1767.46 418.807 1759.48 422.192 1748.09 423.715C1746.05 423.884 1740.27 424.392 1735.18 424.731C1722.43 425.408 1713.93 426.762 1706.29 429.469C1705.27 429.808 1704.25 430.146 1704.08 429.977C1703.74 429.639 1709.01 426.592 1713.25 424.561C1719.2 421.684 1725.32 420.161 1738.74 417.791C1745.37 416.776 1752.17 415.422 1753.87 414.745C1770.69 409.498 1779.02 396.466 1776.3 380.557Z" fill="white"/>
<path d="M1791.76 407.807C1787.34 398.16 1786.32 389.02 1788.7 380.389C1789.04 379.543 1789.38 378.696 1789.72 378.696C1790.06 378.696 1791.08 379.204 1792.1 379.881C1794.14 381.235 1798.39 383.604 1809.26 389.528C1823.03 396.975 1830.85 402.729 1836.28 409.33C1841.04 415.084 1843.93 421.685 1845.29 429.809C1846.14 434.378 1845.63 445.379 1844.44 449.949C1840.7 464.335 1832.21 475.844 1819.8 482.444C1817.93 483.46 1816.4 484.137 1816.23 484.137C1816.06 484.137 1816.74 482.444 1817.76 480.414C1821.84 471.782 1822.35 463.489 1819.29 454.18C1817.42 448.426 1813.51 441.487 1805.7 429.809C1796.35 416.269 1794.14 412.715 1791.76 407.807Z" fill="white"/>
<path d="M1665.16 459.596C1677.74 449.103 1693.2 441.656 1707.48 439.287C1713.59 438.271 1723.79 438.61 1729.4 440.133C1738.4 442.502 1746.56 447.58 1750.81 453.842C1754.89 459.935 1756.76 465.181 1758.63 476.859C1759.31 481.429 1760.16 486.168 1760.33 487.183C1761.69 493.276 1764.4 498.015 1767.8 500.554C1773.07 504.446 1782.25 504.616 1791.25 501.231C1792.78 500.723 1794.14 500.215 1794.14 500.385C1794.48 500.723 1789.89 503.769 1786.84 505.293C1782.59 507.493 1779.19 508.17 1774.6 508.17C1766.44 508.17 1759.48 503.939 1753.87 495.476C1752.68 493.784 1750.3 488.876 1748.26 484.306C1742.31 470.597 1739.25 466.535 1732.29 461.966C1726.17 458.073 1718.35 457.227 1712.4 460.104C1704.59 463.827 1702.55 473.813 1707.99 479.906C1710.2 482.444 1714.27 484.475 1717.67 484.983C1723.96 485.829 1729.4 480.921 1729.4 474.659C1729.4 470.597 1727.87 468.228 1723.79 466.366C1718.35 463.997 1712.4 466.704 1712.57 471.951C1712.57 474.151 1713.59 475.505 1715.8 476.521C1717.16 477.198 1717.16 477.198 1716.14 477.029C1711.21 476.013 1710.03 469.92 1713.93 466.027C1718.69 461.289 1728.72 463.32 1732.12 469.92C1733.48 472.628 1733.65 478.044 1732.46 481.429C1729.57 488.876 1721.41 492.768 1713.08 490.568C1707.48 489.045 1705.1 487.522 1698.3 480.583C1686.4 468.397 1681.82 466.027 1664.82 463.489L1661.59 462.981L1665.16 459.596Z" fill="white"/>
<path fill-rule="evenodd" clip-rule="evenodd" d="M1575.78 187.278C1615.37 235.174 1676.38 309.643 1679.44 313.705C1681.99 317.09 1680.97 320.305 1676.72 322.675C1674.34 324.029 1669.41 325.383 1667.03 325.383C1664.31 325.383 1661.08 324.029 1658.88 321.829C1657.35 320.305 1650.72 310.658 1635.76 287.472C1624.38 269.701 1614.69 254.976 1614.52 254.807C1613.84 254.469 1613.84 254.469 1634.57 291.364C1647.66 314.551 1651.91 322.844 1651.91 323.86C1651.91 326.06 1651.23 327.245 1648.51 330.291C1643.92 335.368 1641.88 341.123 1640.35 353.139C1638.65 366.51 1634.07 375.988 1620.98 392.066C1613.33 401.544 1612.14 403.236 1610.27 407.129C1607.9 411.868 1607.22 414.576 1606.88 420.669C1606.54 427.1 1607.22 431.162 1609.08 437.255C1610.78 442.671 1612.65 446.225 1617.24 453.164C1621.15 459.257 1623.53 463.827 1623.53 465.519C1623.53 466.873 1623.87 466.873 1629.99 465.519C1644.6 462.134 1656.67 456.38 1663.29 449.271C1667.37 444.871 1668.39 442.502 1668.39 436.409C1668.39 432.516 1668.22 431.67 1667.2 429.3C1665.5 425.577 1662.27 422.53 1655.31 417.792C1646.13 411.529 1642.22 406.452 1641.2 399.682C1640.35 393.928 1641.37 390.035 1646.47 379.373C1651.74 368.372 1653.1 363.802 1653.95 352.632C1654.46 345.523 1655.31 342.646 1657.35 340.446C1659.56 338.076 1661.42 337.23 1666.69 336.553C1675.36 335.368 1680.97 333.168 1685.39 328.937C1689.29 325.383 1690.99 321.829 1691.16 316.582L1691.33 312.689L1689.12 310.32C1681.14 301.181 1570.51 180 1570 180C1569.83 180 1572.55 183.216 1575.78 187.278ZM1627.95 427.946C1629.82 424.731 1628.8 420.669 1625.74 418.638C1622.85 416.776 1618.43 417.622 1618.43 420.161C1618.43 420.838 1618.77 421.515 1619.79 421.853C1621.32 422.7 1621.49 423.546 1620.3 425.408C1619.11 427.269 1619.11 428.962 1620.64 430.147C1623.02 432.008 1626.25 430.993 1627.95 427.946Z" fill="white"/>
<path fill-rule="evenodd" clip-rule="evenodd" d="M1696.77 338.923C1692.69 340.107 1688.79 344.508 1687.6 348.908C1686.92 351.616 1687.26 356.524 1688.45 358.047C1690.32 360.417 1692.01 361.094 1696.77 361.094C1706.12 361.094 1714.11 357.032 1714.96 352.124C1715.81 348.062 1712.24 342.477 1707.31 339.938C1704.76 338.584 1699.49 338.076 1696.77 338.923ZM1707.65 347.385C1709.01 345.354 1708.5 343.154 1705.95 341.63C1701.36 338.753 1694.39 341.123 1694.39 345.523C1694.39 347.723 1697.96 350.093 1701.36 350.093C1703.57 350.093 1706.63 348.739 1707.65 347.385Z" fill="white"/>
</g>
<g opacity="0.5" clip-path="url(#clip6_72_132)">
<path d="M-70.8459 582.638C-74.4145 582.13 -74.5845 581.961 -72.8851 581.792C-69.6563 581.284 -62.1792 581.961 -56.9113 583.146C-44.676 586.023 -33.6302 593.47 -21.9047 606.502L-18.8459 610.056L-14.4276 609.379C4.43515 606.332 23.8077 608.702 39.9515 616.149C44.3698 618.18 51.3371 622.242 52.1868 623.257C52.5267 623.596 53.0365 625.796 53.3763 627.996C54.5659 635.951 54.0561 641.874 51.5071 646.444C50.1476 648.983 50.1476 649.66 50.9972 651.86C51.677 653.552 53.7162 654.737 55.5855 654.737C59.6639 654.737 63.9123 648.306 65.9515 639.336L66.8012 635.781L68.3306 637.474C76.9972 647.121 83.7946 660.491 84.8143 669.969L85.1541 672.508L83.6247 670.308C81.0757 666.415 78.6966 663.876 75.4678 661.676C69.6901 657.783 63.5724 656.599 47.4286 655.752C32.8143 654.906 24.4874 653.721 16.3306 651.014C2.39594 646.444 -4.74132 640.52 -21.225 618.687C-28.5322 609.04 -33.1204 603.794 -37.7086 599.393C-47.7348 589.746 -57.7609 584.669 -70.8459 582.638Z" fill="white"/>
<path d="M55.7636 604.132C56.1034 597.7 56.9531 593.469 58.8224 589.576C59.5021 588.053 60.1819 586.699 60.3518 586.699C60.5217 586.699 60.1819 587.884 59.6721 589.238C58.3126 592.961 58.1426 598.208 58.9923 604.132C60.1819 611.748 60.6917 612.763 68.8485 621.056C72.5871 624.949 77.0054 629.857 78.7047 631.888L81.5936 635.611L78.7047 632.904C75.1361 629.519 66.9793 623.087 65.11 622.241C63.9204 621.564 63.7505 621.564 62.9008 622.41C62.2211 623.087 62.0511 624.103 62.0511 629.011C61.8812 636.627 60.8616 641.366 58.3126 646.274C56.9531 648.813 56.7832 648.305 57.9727 645.428C58.8224 643.228 58.9923 642.212 58.9923 634.935C58.9923 620.21 57.293 616.656 46.927 610.732C44.378 609.209 39.9596 607.009 37.4106 605.824C34.6917 604.639 32.6525 603.624 32.8224 603.624C33.1623 603.285 43.1884 606.163 47.0969 607.855C53.0446 610.225 54.0642 610.394 54.744 610.225C55.2538 609.717 55.5936 608.363 55.7636 604.132Z" fill="white"/>
<path d="M47.0894 702.972C13.4423 689.433 1.54688 677.755 1.54688 657.953C1.54688 655.076 1.71681 652.706 1.71681 652.706C1.88674 652.706 3.07629 653.722 4.6057 654.906C11.4031 660.322 19.0501 662.692 40.292 665.738C52.6972 667.6 59.8345 668.954 66.292 671.154C86.8541 677.924 99.5992 691.802 102.658 710.588C103.508 716.004 102.998 726.328 101.638 731.744C100.449 735.975 97.0502 743.761 96.2005 743.93C96.0305 743.93 95.6907 743.084 95.6907 741.73C95.3508 734.621 91.7822 727.852 85.8345 722.605C78.6972 716.512 69.5207 711.942 47.0894 702.972Z" fill="white"/>
<path d="M23.3004 708.557C22.9605 706.019 22.1108 702.803 21.601 701.449L20.7513 698.91L22.2808 700.772C24.4899 703.311 26.1892 706.357 27.7187 710.588C28.9082 713.804 28.9082 714.819 28.9082 720.066C28.9082 725.143 28.7383 726.328 27.7187 729.205C26.0193 733.775 23.9801 736.991 20.5814 740.545C14.4638 746.807 6.47683 750.192 -4.90879 751.715C-6.948 751.884 -12.7258 752.392 -17.8238 752.731C-30.5689 753.408 -39.0657 754.762 -46.7127 757.469C-47.7323 757.808 -48.7519 758.146 -48.9219 757.977C-49.2617 757.639 -43.9938 754.592 -39.7454 752.561C-33.7977 749.684 -27.68 748.161 -14.2552 745.791C-7.62774 744.776 -0.830365 743.422 0.868981 742.745C17.6925 737.498 26.0193 724.466 23.3004 708.557Z" fill="white"/>
<path d="M38.761 735.807C34.3427 726.16 33.3231 717.02 35.7021 708.389C36.042 707.543 36.3819 706.696 36.7218 706.696C37.0616 706.696 38.0812 707.204 39.1008 707.881C41.1401 709.235 45.3884 711.604 56.2642 717.528C70.029 724.975 77.8459 730.729 83.2838 737.33C88.042 743.084 90.9309 749.685 92.2904 757.809C93.1401 762.378 92.6303 773.379 91.4407 777.949C87.7022 792.335 79.2054 803.844 66.8002 810.444C64.9309 811.46 63.4015 812.137 63.2315 812.137C63.0616 812.137 63.7414 810.444 64.761 808.414C68.8394 799.782 69.3492 791.489 66.2904 782.18C64.4211 776.426 60.5126 769.487 52.6956 757.809C43.3492 744.269 41.1401 740.715 38.761 735.807Z" fill="white"/>
<path d="M-87.8376 787.596C-75.2625 777.103 -59.7984 769.656 -45.5239 767.287C-39.4063 766.271 -29.2102 766.61 -23.6023 768.133C-14.5958 770.502 -6.43893 775.58 -2.19057 781.842C1.88786 787.935 3.75714 793.181 5.62642 804.859C6.30616 809.429 7.15583 814.168 7.32577 815.183C8.68524 821.276 11.4042 826.015 14.8029 828.554C20.0709 832.446 29.2473 832.616 38.2539 829.231C39.7833 828.723 41.1427 828.215 41.1427 828.385C41.4826 828.723 36.8944 831.769 33.8356 833.293C29.5872 835.493 26.1885 836.17 21.6003 836.17C13.4434 836.17 6.47609 831.939 0.868247 823.476C-0.321296 821.784 -2.70037 816.876 -4.73959 812.306C-10.6873 798.597 -13.7461 794.535 -20.7134 789.966C-26.8311 786.073 -34.6481 785.227 -40.5958 788.104C-48.4128 791.827 -50.452 801.813 -45.0141 807.906C-42.805 810.444 -38.7265 812.475 -35.3278 812.983C-29.0402 813.829 -23.6023 808.921 -23.6023 802.659C-23.6023 798.597 -25.1317 796.228 -29.2102 794.366C-34.6481 791.997 -40.5958 794.704 -40.4259 799.951C-40.4259 802.151 -39.4063 803.505 -37.1971 804.521C-35.8376 805.198 -35.8376 805.198 -36.8572 805.029C-41.7853 804.013 -42.9749 797.92 -39.0664 794.027C-34.3082 789.289 -24.2821 791.32 -20.8834 797.92C-19.5239 800.628 -19.354 806.044 -20.5435 809.429C-23.4324 816.876 -31.5893 820.768 -39.9161 818.568C-45.5239 817.045 -47.903 815.522 -54.7004 808.583C-66.5958 796.397 -71.184 794.027 -88.1775 791.489L-91.4062 790.981L-87.8376 787.596Z" fill="white"/>
</g>
<g opacity="0.5" clip-path="url(#clip7_72_132)">
<path d="M298.154 582.638C294.585 582.13 294.416 581.961 296.115 581.792C299.344 581.284 306.821 581.961 312.089 583.146C324.324 586.023 335.37 593.47 347.095 606.502L350.154 610.056L354.572 609.379C373.435 606.332 392.808 608.702 408.951 616.149C413.37 618.18 420.337 622.242 421.187 623.257C421.527 623.596 422.036 625.796 422.376 627.996C423.566 635.951 423.056 641.874 420.507 646.444C419.148 648.983 419.148 649.66 419.997 651.86C420.677 653.552 422.716 654.737 424.585 654.737C428.664 654.737 432.912 648.306 434.951 639.336L435.801 635.781L437.331 637.474C445.997 647.121 452.795 660.491 453.814 669.969L454.154 672.508L452.625 670.308C450.076 666.415 447.697 663.876 444.468 661.676C438.69 657.783 432.572 656.599 416.429 655.752C401.814 654.906 393.487 653.721 385.331 651.014C371.396 646.444 364.259 640.52 347.775 618.687C340.468 609.04 335.88 603.794 331.291 599.393C321.265 589.746 311.239 584.669 298.154 582.638Z" fill="white"/>
<path d="M424.764 604.132C425.103 597.7 425.953 593.469 427.822 589.576C428.502 588.053 429.182 586.699 429.352 586.699C429.522 586.699 429.182 587.884 428.672 589.238C427.313 592.961 427.143 598.208 427.992 604.132C429.182 611.748 429.692 612.763 437.849 621.056C441.587 624.949 446.005 629.857 447.705 631.888L450.594 635.611L447.705 632.904C444.136 629.519 435.979 623.087 434.11 622.241C432.92 621.564 432.75 621.564 431.901 622.41C431.221 623.087 431.051 624.103 431.051 629.011C430.881 636.627 429.862 641.366 427.313 646.274C425.953 648.813 425.783 648.305 426.973 645.428C427.822 643.228 427.992 642.212 427.992 634.935C427.992 620.21 426.293 616.656 415.927 610.732C413.378 609.209 408.96 607.009 406.411 605.824C403.692 604.639 401.652 603.624 401.822 603.624C402.162 603.285 412.188 606.163 416.097 607.855C422.045 610.225 423.064 610.394 423.744 610.225C424.254 609.717 424.594 608.363 424.764 604.132Z" fill="white"/>
<path d="M305.121 629.349C297.983 619.533 293.395 604.301 294.415 592.961L294.755 589.407L296.454 589.746C299.513 590.253 304.781 592.284 307.33 593.808C314.127 597.87 317.186 603.455 320.075 617.333C320.925 621.395 322.114 626.134 322.624 627.657C323.474 630.196 326.702 636.119 329.421 639.843C331.291 642.551 330.101 643.905 325.853 643.566C319.395 642.889 310.729 636.966 305.121 629.349Z" fill="white"/>
<path d="M416.089 702.972C382.442 689.433 370.547 677.755 370.547 657.953C370.547 655.076 370.717 652.706 370.717 652.706C370.887 652.706 372.076 653.722 373.606 654.906C380.403 660.322 388.05 662.692 409.292 665.738C421.697 667.6 428.834 668.954 435.292 671.154C455.854 677.924 468.599 691.802 471.658 710.588C472.508 716.004 471.998 726.328 470.638 731.744C469.449 735.975 466.05 743.761 465.2 743.93C465.031 743.93 464.691 743.084 464.691 741.73C464.351 734.621 460.782 727.852 454.834 722.605C447.697 716.512 438.521 711.942 416.089 702.972Z" fill="white"/>
<path d="M392.3 708.557C391.96 706.019 391.111 702.803 390.601 701.449L389.751 698.91L391.281 700.772C393.49 703.311 395.189 706.357 396.719 710.588C397.908 713.804 397.908 714.819 397.908 720.066C397.908 725.143 397.738 726.328 396.719 729.205C395.019 733.775 392.98 736.991 389.581 740.545C383.464 746.807 375.477 750.192 364.091 751.715C362.052 751.884 356.274 752.392 351.176 752.731C338.431 753.408 329.934 754.762 322.287 757.469C321.268 757.808 320.248 758.146 320.078 757.977C319.738 757.639 325.006 754.592 329.255 752.561C335.202 749.684 341.32 748.161 354.745 745.791C361.372 744.776 368.17 743.422 369.869 742.745C386.693 737.498 395.019 724.466 392.3 708.557Z" fill="white"/>
<path d="M407.761 735.807C403.343 726.16 402.323 717.02 404.702 708.389C405.042 707.543 405.382 706.696 405.722 706.696C406.062 706.696 407.081 707.204 408.101 707.881C410.14 709.235 414.388 711.604 425.264 717.528C439.029 724.975 446.846 730.729 452.284 737.33C457.042 743.084 459.931 749.685 461.29 757.809C462.14 762.378 461.63 773.379 460.441 777.949C456.702 792.335 448.205 803.844 435.8 810.444C433.931 811.46 432.401 812.137 432.232 812.137C432.062 812.137 432.741 810.444 433.761 808.414C437.839 799.782 438.349 791.489 435.29 782.18C433.421 776.426 429.513 769.487 421.696 757.809C412.349 744.269 410.14 740.715 407.761 735.807Z" fill="white"/>
<path d="M281.162 787.596C293.738 777.103 309.202 769.656 323.476 767.287C329.594 766.271 339.79 766.61 345.398 768.133C354.404 770.502 362.561 775.58 366.809 781.842C370.888 787.935 372.757 793.181 374.626 804.859C375.306 809.429 376.156 814.168 376.326 815.183C377.685 821.276 380.404 826.015 383.803 828.554C389.071 832.446 398.247 832.616 407.254 829.231C408.783 828.723 410.143 828.215 410.143 828.385C410.483 828.723 405.894 831.769 402.836 833.293C398.587 835.493 395.189 836.17 390.6 836.17C382.443 836.17 375.476 831.939 369.868 823.476C368.679 821.784 366.3 816.876 364.26 812.306C358.313 798.597 355.254 794.535 348.287 789.966C342.169 786.073 334.352 785.227 328.404 788.104C320.587 791.827 318.548 801.813 323.986 807.906C326.195 810.444 330.273 812.475 333.672 812.983C339.96 813.829 345.398 808.921 345.398 802.659C345.398 798.597 343.868 796.228 339.79 794.366C334.352 791.997 328.404 794.704 328.574 799.951C328.574 802.151 329.594 803.505 331.803 804.521C333.162 805.198 333.162 805.198 332.143 805.029C327.215 804.013 326.025 797.92 329.934 794.027C334.692 789.289 344.718 791.32 348.117 797.92C349.476 800.628 349.646 806.044 348.456 809.429C345.568 816.876 337.411 820.768 329.084 818.568C323.476 817.045 321.097 815.522 314.3 808.583C302.404 796.397 297.816 794.027 280.823 791.489L277.594 790.981L281.162 787.596Z" fill="white"/>
<path fill-rule="evenodd" clip-rule="evenodd" d="M191.778 515.278C231.372 563.174 292.379 637.643 295.438 641.705C297.987 645.09 296.967 648.305 292.719 650.675C290.34 652.029 285.412 653.383 283.032 653.383C280.313 653.383 277.085 652.029 274.876 649.829C273.346 648.305 266.719 638.658 251.764 615.472C240.379 597.701 230.693 582.976 230.523 582.807C229.843 582.469 229.843 582.469 250.575 619.364C263.66 642.551 267.908 650.844 267.908 651.86C267.908 654.06 267.229 655.245 264.51 658.291C259.921 663.368 257.882 669.123 256.353 681.139C254.653 694.51 250.065 703.988 236.98 720.066C229.333 729.544 228.144 731.236 226.274 735.129C223.895 739.868 223.215 742.576 222.876 748.669C222.536 755.1 223.215 759.162 225.085 765.255C226.784 770.671 228.653 774.225 233.242 781.164C237.15 787.257 239.529 791.827 239.529 793.519C239.529 794.873 239.869 794.873 245.987 793.519C260.601 790.134 272.666 784.38 279.294 777.271C283.372 772.871 284.392 770.502 284.392 764.409C284.392 760.516 284.222 759.67 283.202 757.3C281.503 753.577 278.274 750.53 271.307 745.792C262.13 739.529 258.222 734.452 257.202 727.682C256.353 721.928 257.372 718.035 262.47 707.373C267.738 696.372 269.098 691.802 269.947 680.632C270.457 673.523 271.307 670.646 273.346 668.446C275.555 666.076 277.425 665.23 282.693 664.553C291.359 663.368 296.967 661.168 301.385 656.937C305.294 653.383 306.993 649.829 307.163 644.582L307.333 640.689L305.124 638.32C297.137 629.181 186.51 508 186 508C185.83 508 188.549 511.216 191.778 515.278ZM243.947 755.946C245.817 752.731 244.797 748.669 241.738 746.638C238.849 744.776 234.431 745.622 234.431 748.161C234.431 748.838 234.771 749.515 235.791 749.853C237.32 750.7 237.49 751.546 236.3 753.408C235.111 755.269 235.111 756.962 236.64 758.147C239.019 760.008 242.248 758.993 243.947 755.946Z" fill="white"/>
<path fill-rule="evenodd" clip-rule="evenodd" d="M312.773 666.923C308.694 668.107 304.786 672.508 303.596 676.908C302.917 679.616 303.257 684.524 304.446 686.047C306.315 688.417 308.015 689.094 312.773 689.094C322.119 689.094 330.106 685.032 330.956 680.124C331.806 676.062 328.237 670.477 323.309 667.938C320.76 666.584 315.492 666.076 312.773 666.923ZM323.649 675.385C325.008 673.354 324.498 671.154 321.949 669.63C317.361 666.753 310.394 669.123 310.394 673.523C310.394 675.723 313.962 678.093 317.361 678.093C319.57 678.093 322.629 676.739 323.649 675.385Z" fill="white"/>
</g>
<g opacity="0.5" clip-path="url(#clip8_72_132)">
<path d="M667.154 582.638C663.585 582.13 663.416 581.961 665.115 581.792C668.344 581.284 675.821 581.961 681.089 583.146C693.324 586.023 704.37 593.47 716.095 606.502L719.154 610.056L723.572 609.379C742.435 606.332 761.808 608.702 777.951 616.149C782.37 618.18 789.337 622.242 790.187 623.257C790.527 623.596 791.036 625.796 791.376 627.996C792.566 635.951 792.056 641.874 789.507 646.444C788.148 648.983 788.148 649.66 788.997 651.86C789.677 653.552 791.716 654.737 793.585 654.737C797.664 654.737 801.912 648.306 803.951 639.336L804.801 635.781L806.331 637.474C814.997 647.121 821.795 660.491 822.814 669.969L823.154 672.508L821.625 670.308C819.076 666.415 816.697 663.876 813.468 661.676C807.69 657.783 801.572 656.599 785.429 655.752C770.814 654.906 762.487 653.721 754.331 651.014C740.396 646.444 733.259 640.52 716.775 618.687C709.468 609.04 704.88 603.794 700.291 599.393C690.265 589.746 680.239 584.669 667.154 582.638Z" fill="white"/>
<path d="M793.764 604.132C794.103 597.7 794.953 593.469 796.822 589.576C797.502 588.053 798.182 586.699 798.352 586.699C798.522 586.699 798.182 587.884 797.672 589.238C796.313 592.961 796.143 598.208 796.992 604.132C798.182 611.748 798.692 612.763 806.849 621.056C810.587 624.949 815.005 629.857 816.705 631.888L819.594 635.611L816.705 632.904C813.136 629.519 804.979 623.087 803.11 622.241C801.92 621.564 801.75 621.564 800.901 622.41C800.221 623.087 800.051 624.103 800.051 629.011C799.881 636.627 798.862 641.366 796.313 646.274C794.953 648.813 794.783 648.305 795.973 645.428C796.822 643.228 796.992 642.212 796.992 634.935C796.992 620.21 795.293 616.656 784.927 610.732C782.378 609.209 777.96 607.009 775.411 605.824C772.692 604.639 770.652 603.624 770.822 603.624C771.162 603.285 781.188 606.163 785.097 607.855C791.045 610.225 792.064 610.394 792.744 610.225C793.254 609.717 793.594 608.363 793.764 604.132Z" fill="white"/>
<path d="M674.121 629.349C666.983 619.533 662.395 604.301 663.415 592.961L663.755 589.407L665.454 589.746C668.513 590.253 673.781 592.284 676.33 593.808C683.127 597.87 686.186 603.455 689.075 617.333C689.925 621.395 691.114 626.134 691.624 627.657C692.474 630.196 695.702 636.119 698.421 639.843C700.291 642.551 699.101 643.905 694.853 643.566C688.395 642.889 679.729 636.966 674.121 629.349Z" fill="white"/>
<path d="M785.089 702.972C751.442 689.433 739.547 677.755 739.547 657.953C739.547 655.076 739.717 652.706 739.717 652.706C739.887 652.706 741.076 653.722 742.606 654.906C749.403 660.322 757.05 662.692 778.292 665.738C790.697 667.6 797.834 668.954 804.292 671.154C824.854 677.924 837.599 691.802 840.658 710.588C841.508 716.004 840.998 726.328 839.638 731.744C838.449 735.975 835.05 743.761 834.2 743.93C834.031 743.93 833.691 743.084 833.691 741.73C833.351 734.621 829.782 727.852 823.834 722.605C816.697 716.512 807.521 711.942 785.089 702.972Z" fill="white"/>
<path d="M761.3 708.557C760.96 706.019 760.111 702.803 759.601 701.449L758.751 698.91L760.281 700.772C762.49 703.311 764.189 706.357 765.719 710.588C766.908 713.804 766.908 714.819 766.908 720.066C766.908 725.143 766.738 726.328 765.719 729.205C764.019 733.775 761.98 736.991 758.581 740.545C752.464 746.807 744.477 750.192 733.091 751.715C731.052 751.884 725.274 752.392 720.176 752.731C707.431 753.408 698.934 754.762 691.287 757.469C690.268 757.808 689.248 758.146 689.078 757.977C688.738 757.639 694.006 754.592 698.255 752.561C704.202 749.684 710.32 748.161 723.745 745.791C730.372 744.776 737.17 743.422 738.869 742.745C755.693 737.498 764.019 724.466 761.3 708.557Z" fill="white"/>
<path d="M776.761 735.807C772.343 726.16 771.323 717.02 773.702 708.389C774.042 707.543 774.382 706.696 774.722 706.696C775.062 706.696 776.081 707.204 777.101 707.881C779.14 709.235 783.388 711.604 794.264 717.528C808.029 724.975 815.846 730.729 821.284 737.33C826.042 743.084 828.931 749.685 830.29 757.809C831.14 762.378 830.63 773.379 829.441 777.949C825.702 792.335 817.205 803.844 804.8 810.444C802.931 811.46 801.401 812.137 801.232 812.137C801.062 812.137 801.741 810.444 802.761 808.414C806.839 799.782 807.349 791.489 804.29 782.18C802.421 776.426 798.513 769.487 790.696 757.809C781.349 744.269 779.14 740.715 776.761 735.807Z" fill="white"/>
<path d="M650.162 787.596C662.738 777.103 678.202 769.656 692.476 767.287C698.594 766.271 708.79 766.61 714.398 768.133C723.404 770.502 731.561 775.58 735.809 781.842C739.888 787.935 741.757 793.181 743.626 804.859C744.306 809.429 745.156 814.168 745.326 815.183C746.685 821.276 749.404 826.015 752.803 828.554C758.071 832.446 767.247 832.616 776.254 829.231C777.783 828.723 779.143 828.215 779.143 828.385C779.483 828.723 774.894 831.769 771.836 833.293C767.587 835.493 764.189 836.17 759.6 836.17C751.443 836.17 744.476 831.939 738.868 823.476C737.679 821.784 735.3 816.876 733.26 812.306C727.313 798.597 724.254 794.535 717.287 789.966C711.169 786.073 703.352 785.227 697.404 788.104C689.587 791.827 687.548 801.813 692.986 807.906C695.195 810.444 699.273 812.475 702.672 812.983C708.96 813.829 714.398 808.921 714.398 802.659C714.398 798.597 712.868 796.228 708.79 794.366C703.352 791.997 697.404 794.704 697.574 799.951C697.574 802.151 698.594 803.505 700.803 804.521C702.162 805.198 702.162 805.198 701.143 805.029C696.215 804.013 695.025 797.92 698.934 794.027C703.692 789.289 713.718 791.32 717.117 797.92C718.476 800.628 718.646 806.044 717.456 809.429C714.568 816.876 706.411 820.768 698.084 818.568C692.476 817.045 690.097 815.522 683.3 808.583C671.404 796.397 666.816 794.027 649.823 791.489L646.594 790.981L650.162 787.596Z" fill="white"/>
<path fill-rule="evenodd" clip-rule="evenodd" d="M560.778 515.278C600.372 563.174 661.379 637.643 664.438 641.705C666.987 645.09 665.967 648.305 661.719 650.675C659.34 652.029 654.412 653.383 652.032 653.383C649.313 653.383 646.085 652.029 643.876 649.829C642.346 648.305 635.719 638.658 620.764 615.472C609.379 597.701 599.693 582.976 599.523 582.807C598.843 582.469 598.843 582.469 619.575 619.364C632.66 642.551 636.908 650.844 636.908 651.86C636.908 654.06 636.229 655.245 633.51 658.291C628.921 663.368 626.882 669.123 625.353 681.139C623.653 694.51 619.065 703.988 605.98 720.066C598.333 729.544 597.144 731.236 595.274 735.129C592.895 739.868 592.215 742.576 591.876 748.669C591.536 755.1 592.215 759.162 594.085 765.255C595.784 770.671 597.653 774.225 602.242 781.164C606.15 787.257 608.529 791.827 608.529 793.519C608.529 794.873 608.869 794.873 614.987 793.519C629.601 790.134 641.666 784.38 648.294 777.271C652.372 772.871 653.392 770.502 653.392 764.409C653.392 760.516 653.222 759.67 652.202 757.3C650.503 753.577 647.274 750.53 640.307 745.792C631.13 739.529 627.222 734.452 626.202 727.682C625.353 721.928 626.372 718.035 631.47 707.373C636.738 696.372 638.098 691.802 638.947 680.632C639.457 673.523 640.307 670.646 642.346 668.446C644.555 666.076 646.425 665.23 651.693 664.553C660.359 663.368 665.967 661.168 670.385 656.937C674.294 653.383 675.993 649.829 676.163 644.582L676.333 640.689L674.124 638.32C666.137 629.181 555.51 508 555 508C554.83 508 557.549 511.216 560.778 515.278ZM612.947 755.946C614.817 752.731 613.797 748.669 610.738 746.638C607.849 744.776 603.431 745.622 603.431 748.161C603.431 748.838 603.771 749.515 604.791 749.853C606.32 750.7 606.49 751.546 605.3 753.408C604.111 755.269 604.111 756.962 605.64 758.147C608.019 760.008 611.248 758.993 612.947 755.946Z" fill="white"/>
<path fill-rule="evenodd" clip-rule="evenodd" d="M681.773 666.923C677.694 668.107 673.786 672.508 672.596 676.908C671.917 679.616 672.257 684.524 673.446 686.047C675.315 688.417 677.015 689.094 681.773 689.094C691.119 689.094 699.106 685.032 699.956 680.124C700.806 676.062 697.237 670.477 692.309 667.938C689.76 666.584 684.492 666.076 681.773 666.923ZM692.649 675.385C694.008 673.354 693.498 671.154 690.949 669.63C686.361 666.753 679.394 669.123 679.394 673.523C679.394 675.723 682.962 678.093 686.361 678.093C688.57 678.093 691.629 676.739 692.649 675.385Z" fill="white"/>
</g>
<g opacity="0.5" clip-path="url(#clip9_72_132)">
<path d="M1036.15 582.638C1032.59 582.13 1032.42 581.961 1034.11 581.792C1037.34 581.284 1044.82 581.961 1050.09 583.146C1062.32 586.023 1073.37 593.47 1085.1 606.502L1088.15 610.056L1092.57 609.379C1111.44 606.332 1130.81 608.702 1146.95 616.149C1151.37 618.18 1158.34 622.242 1159.19 623.257C1159.53 623.596 1160.04 625.796 1160.38 627.996C1161.57 635.951 1161.06 641.874 1158.51 646.444C1157.15 648.983 1157.15 649.66 1158 651.86C1158.68 653.552 1160.72 654.737 1162.59 654.737C1166.66 654.737 1170.91 648.306 1172.95 639.336L1173.8 635.781L1175.33 637.474C1184 647.121 1190.79 660.491 1191.81 669.969L1192.15 672.508L1190.62 670.308C1188.08 666.415 1185.7 663.876 1182.47 661.676C1176.69 657.783 1170.57 656.599 1154.43 655.752C1139.81 654.906 1131.49 653.721 1123.33 651.014C1109.4 646.444 1102.26 640.52 1085.78 618.687C1078.47 609.04 1073.88 603.794 1069.29 599.393C1059.27 589.746 1049.24 584.669 1036.15 582.638Z" fill="white"/>
<path d="M1162.76 604.132C1163.1 597.7 1163.95 593.469 1165.82 589.576C1166.5 588.053 1167.18 586.699 1167.35 586.699C1167.52 586.699 1167.18 587.884 1166.67 589.238C1165.31 592.961 1165.14 598.208 1165.99 604.132C1167.18 611.748 1167.69 612.763 1175.85 621.056C1179.59 624.949 1184.01 629.857 1185.7 631.888L1188.59 635.611L1185.7 632.904C1182.14 629.519 1173.98 623.087 1172.11 622.241C1170.92 621.564 1170.75 621.564 1169.9 622.41C1169.22 623.087 1169.05 624.103 1169.05 629.011C1168.88 636.627 1167.86 641.366 1165.31 646.274C1163.95 648.813 1163.78 648.305 1164.97 645.428C1165.82 643.228 1165.99 642.212 1165.99 634.935C1165.99 620.21 1164.29 616.656 1153.93 610.732C1151.38 609.209 1146.96 607.009 1144.41 605.824C1141.69 604.639 1139.65 603.624 1139.82 603.624C1140.16 603.285 1150.19 606.163 1154.1 607.855C1160.04 610.225 1161.06 610.394 1161.74 610.225C1162.25 609.717 1162.59 608.363 1162.76 604.132Z" fill="white"/>
<path d="M1043.12 629.349C1035.98 619.533 1031.4 604.301 1032.41 592.961L1032.75 589.407L1034.45 589.746C1037.51 590.253 1042.78 592.284 1045.33 593.808C1052.13 597.87 1055.19 603.455 1058.07 617.333C1058.92 621.395 1060.11 626.134 1060.62 627.657C1061.47 630.196 1064.7 636.119 1067.42 639.843C1069.29 642.551 1068.1 643.905 1063.85 643.566C1057.4 642.889 1048.73 636.966 1043.12 629.349Z" fill="white"/>
<path d="M1154.09 702.972C1120.44 689.433 1108.55 677.755 1108.55 657.953C1108.55 655.076 1108.72 652.706 1108.72 652.706C1108.89 652.706 1110.08 653.722 1111.61 654.906C1118.4 660.322 1126.05 662.692 1147.29 665.738C1159.7 667.6 1166.83 668.954 1173.29 671.154C1193.85 677.924 1206.6 691.802 1209.66 710.588C1210.51 716.004 1210 726.328 1208.64 731.744C1207.45 735.975 1204.05 743.761 1203.2 743.93C1203.03 743.93 1202.69 743.084 1202.69 741.73C1202.35 734.621 1198.78 727.852 1192.83 722.605C1185.7 716.512 1176.52 711.942 1154.09 702.972Z" fill="white"/>
<path d="M1130.3 708.557C1129.96 706.019 1129.11 702.803 1128.6 701.449L1127.75 698.91L1129.28 700.772C1131.49 703.311 1133.19 706.357 1134.72 710.588C1135.91 713.804 1135.91 714.819 1135.91 720.066C1135.91 725.143 1135.74 726.328 1134.72 729.205C1133.02 733.775 1130.98 736.991 1127.58 740.545C1121.46 746.807 1113.48 750.192 1102.09 751.715C1100.05 751.884 1094.27 752.392 1089.18 752.731C1076.43 753.408 1067.93 754.762 1060.29 757.469C1059.27 757.808 1058.25 758.146 1058.08 757.977C1057.74 757.639 1063.01 754.592 1067.25 752.561C1073.2 749.684 1079.32 748.161 1092.74 745.791C1099.37 744.776 1106.17 743.422 1107.87 742.745C1124.69 737.498 1133.02 724.466 1130.3 708.557Z" fill="white"/>
<path d="M1145.76 735.807C1141.34 726.16 1140.32 717.02 1142.7 708.389C1143.04 707.543 1143.38 706.696 1143.72 706.696C1144.06 706.696 1145.08 707.204 1146.1 707.881C1148.14 709.235 1152.39 711.604 1163.26 717.528C1177.03 724.975 1184.85 730.729 1190.28 737.33C1195.04 743.084 1197.93 749.685 1199.29 757.809C1200.14 762.378 1199.63 773.379 1198.44 777.949C1194.7 792.335 1186.21 803.844 1173.8 810.444C1171.93 811.46 1170.4 812.137 1170.23 812.137C1170.06 812.137 1170.74 810.444 1171.76 808.414C1175.84 799.782 1176.35 791.489 1173.29 782.18C1171.42 776.426 1167.51 769.487 1159.7 757.809C1150.35 744.269 1148.14 740.715 1145.76 735.807Z" fill="white"/>
<path d="M1019.16 787.596C1031.74 777.103 1047.2 769.656 1061.48 767.287C1067.59 766.271 1077.79 766.61 1083.4 768.133C1092.4 770.502 1100.56 775.58 1104.81 781.842C1108.89 787.935 1110.76 793.181 1112.63 804.859C1113.31 809.429 1114.16 814.168 1114.33 815.183C1115.69 821.276 1118.4 826.015 1121.8 828.554C1127.07 832.446 1136.25 832.616 1145.25 829.231C1146.78 828.723 1148.14 828.215 1148.14 828.385C1148.48 828.723 1143.89 831.769 1140.84 833.293C1136.59 835.493 1133.19 836.17 1128.6 836.17C1120.44 836.17 1113.48 831.939 1107.87 823.476C1106.68 821.784 1104.3 816.876 1102.26 812.306C1096.31 798.597 1093.25 794.535 1086.29 789.966C1080.17 786.073 1072.35 785.227 1066.4 788.104C1058.59 791.827 1056.55 801.813 1061.99 807.906C1064.2 810.444 1068.27 812.475 1071.67 812.983C1077.96 813.829 1083.4 808.921 1083.4 802.659C1083.4 798.597 1081.87 796.228 1077.79 794.366C1072.35 791.997 1066.4 794.704 1066.57 799.951C1066.57 802.151 1067.59 803.505 1069.8 804.521C1071.16 805.198 1071.16 805.198 1070.14 805.029C1065.21 804.013 1064.03 797.92 1067.93 794.027C1072.69 789.289 1082.72 791.32 1086.12 797.92C1087.48 800.628 1087.65 806.044 1086.46 809.429C1083.57 816.876 1075.41 820.768 1067.08 818.568C1061.48 817.045 1059.1 815.522 1052.3 808.583C1040.4 796.397 1035.82 794.027 1018.82 791.489L1015.59 790.981L1019.16 787.596Z" fill="white"/>
<path fill-rule="evenodd" clip-rule="evenodd" d="M929.778 515.278C969.372 563.174 1030.38 637.643 1033.44 641.705C1035.99 645.09 1034.97 648.305 1030.72 650.675C1028.34 652.029 1023.41 653.383 1021.03 653.383C1018.31 653.383 1015.08 652.029 1012.88 649.829C1011.35 648.305 1004.72 638.658 989.764 615.472C978.379 597.701 968.693 582.976 968.523 582.807C967.843 582.469 967.843 582.469 988.575 619.364C1001.66 642.551 1005.91 650.844 1005.91 651.86C1005.91 654.06 1005.23 655.245 1002.51 658.291C997.921 663.368 995.882 669.123 994.353 681.139C992.653 694.51 988.065 703.988 974.98 720.066C967.333 729.544 966.144 731.236 964.274 735.129C961.895 739.868 961.215 742.576 960.876 748.669C960.536 755.1 961.215 759.162 963.085 765.255C964.784 770.671 966.653 774.225 971.242 781.164C975.15 787.257 977.529 791.827 977.529 793.519C977.529 794.873 977.869 794.873 983.987 793.519C998.601 790.134 1010.67 784.38 1017.29 777.271C1021.37 772.871 1022.39 770.502 1022.39 764.409C1022.39 760.516 1022.22 759.67 1021.2 757.3C1019.5 753.577 1016.27 750.53 1009.31 745.792C1000.13 739.529 996.222 734.452 995.202 727.682C994.353 721.928 995.372 718.035 1000.47 707.373C1005.74 696.372 1007.1 691.802 1007.95 680.632C1008.46 673.523 1009.31 670.646 1011.35 668.446C1013.56 666.076 1015.42 665.23 1020.69 664.553C1029.36 663.368 1034.97 661.168 1039.39 656.937C1043.29 653.383 1044.99 649.829 1045.16 644.582L1045.33 640.689L1043.12 638.32C1035.14 629.181 924.51 508 924 508C923.83 508 926.549 511.216 929.778 515.278ZM981.947 755.946C983.817 752.731 982.797 748.669 979.738 746.638C976.849 744.776 972.431 745.622 972.431 748.161C972.431 748.838 972.771 749.515 973.791 749.853C975.32 750.7 975.49 751.546 974.3 753.408C973.111 755.269 973.111 756.962 974.64 758.147C977.019 760.008 980.248 758.993 981.947 755.946Z" fill="white"/>
<path fill-rule="evenodd" clip-rule="evenodd" d="M1050.77 666.923C1046.69 668.107 1042.79 672.508 1041.6 676.908C1040.92 679.616 1041.26 684.524 1042.45 686.047C1044.32 688.417 1046.01 689.094 1050.77 689.094C1060.12 689.094 1068.11 685.032 1068.96 680.124C1069.81 676.062 1066.24 670.477 1061.31 667.938C1058.76 666.584 1053.49 666.076 1050.77 666.923ZM1061.65 675.385C1063.01 673.354 1062.5 671.154 1059.95 669.63C1055.36 666.753 1048.39 669.123 1048.39 673.523C1048.39 675.723 1051.96 678.093 1055.36 678.093C1057.57 678.093 1060.63 676.739 1061.65 675.385Z" fill="white"/>
</g>
<g opacity="0.5" clip-path="url(#clip10_72_132)">
<path d="M1405.15 582.638C1401.59 582.13 1401.42 581.961 1403.11 581.792C1406.34 581.284 1413.82 581.961 1419.09 583.146C1431.32 586.023 1442.37 593.47 1454.1 606.502L1457.15 610.056L1461.57 609.379C1480.44 606.332 1499.81 608.702 1515.95 616.149C1520.37 618.18 1527.34 622.242 1528.19 623.257C1528.53 623.596 1529.04 625.796 1529.38 627.996C1530.57 635.951 1530.06 641.874 1527.51 646.444C1526.15 648.983 1526.15 649.66 1527 651.86C1527.68 653.552 1529.72 654.737 1531.59 654.737C1535.66 654.737 1539.91 648.306 1541.95 639.336L1542.8 635.781L1544.33 637.474C1553 647.121 1559.79 660.491 1560.81 669.969L1561.15 672.508L1559.62 670.308C1557.08 666.415 1554.7 663.876 1551.47 661.676C1545.69 657.783 1539.57 656.599 1523.43 655.752C1508.81 654.906 1500.49 653.721 1492.33 651.014C1478.4 646.444 1471.26 640.52 1454.78 618.687C1447.47 609.04 1442.88 603.794 1438.29 599.393C1428.27 589.746 1418.24 584.669 1405.15 582.638Z" fill="white"/>
<path d="M1531.76 604.132C1532.1 597.7 1532.95 593.469 1534.82 589.576C1535.5 588.053 1536.18 586.699 1536.35 586.699C1536.52 586.699 1536.18 587.884 1535.67 589.238C1534.31 592.961 1534.14 598.208 1534.99 604.132C1536.18 611.748 1536.69 612.763 1544.85 621.056C1548.59 624.949 1553.01 629.857 1554.7 631.888L1557.59 635.611L1554.7 632.904C1551.14 629.519 1542.98 623.087 1541.11 622.241C1539.92 621.564 1539.75 621.564 1538.9 622.41C1538.22 623.087 1538.05 624.103 1538.05 629.011C1537.88 636.627 1536.86 641.366 1534.31 646.274C1532.95 648.813 1532.78 648.305 1533.97 645.428C1534.82 643.228 1534.99 642.212 1534.99 634.935C1534.99 620.21 1533.29 616.656 1522.93 610.732C1520.38 609.209 1515.96 607.009 1513.41 605.824C1510.69 604.639 1508.65 603.624 1508.82 603.624C1509.16 603.285 1519.19 606.163 1523.1 607.855C1529.04 610.225 1530.06 610.394 1530.74 610.225C1531.25 609.717 1531.59 608.363 1531.76 604.132Z" fill="white"/>
<path d="M1412.12 629.349C1404.98 619.533 1400.4 604.301 1401.41 592.961L1401.75 589.407L1403.45 589.746C1406.51 590.253 1411.78 592.284 1414.33 593.808C1421.13 597.87 1424.19 603.455 1427.07 617.333C1427.92 621.395 1429.11 626.134 1429.62 627.657C1430.47 630.196 1433.7 636.119 1436.42 639.843C1438.29 642.551 1437.1 643.905 1432.85 643.566C1426.4 642.889 1417.73 636.966 1412.12 629.349Z" fill="white"/>
<path d="M1523.09 702.972C1489.44 689.433 1477.55 677.755 1477.55 657.953C1477.55 655.076 1477.72 652.706 1477.72 652.706C1477.89 652.706 1479.08 653.722 1480.61 654.906C1487.4 660.322 1495.05 662.692 1516.29 665.738C1528.7 667.6 1535.83 668.954 1542.29 671.154C1562.85 677.924 1575.6 691.802 1578.66 710.588C1579.51 716.004 1579 726.328 1577.64 731.744C1576.45 735.975 1573.05 743.761 1572.2 743.93C1572.03 743.93 1571.69 743.084 1571.69 741.73C1571.35 734.621 1567.78 727.852 1561.83 722.605C1554.7 716.512 1545.52 711.942 1523.09 702.972Z" fill="white"/>
<path d="M1499.3 708.557C1498.96 706.019 1498.11 702.803 1497.6 701.449L1496.75 698.91L1498.28 700.772C1500.49 703.311 1502.19 706.357 1503.72 710.588C1504.91 713.804 1504.91 714.819 1504.91 720.066C1504.91 725.143 1504.74 726.328 1503.72 729.205C1502.02 733.775 1499.98 736.991 1496.58 740.545C1490.46 746.807 1482.48 750.192 1471.09 751.715C1469.05 751.884 1463.27 752.392 1458.18 752.731C1445.43 753.408 1436.93 754.762 1429.29 757.469C1428.27 757.808 1427.25 758.146 1427.08 757.977C1426.74 757.639 1432.01 754.592 1436.25 752.561C1442.2 749.684 1448.32 748.161 1461.74 745.791C1468.37 744.776 1475.17 743.422 1476.87 742.745C1493.69 737.498 1502.02 724.466 1499.3 708.557Z" fill="white"/>
<path d="M1514.76 735.807C1510.34 726.16 1509.32 717.02 1511.7 708.389C1512.04 707.543 1512.38 706.696 1512.72 706.696C1513.06 706.696 1514.08 707.204 1515.1 707.881C1517.14 709.235 1521.39 711.604 1532.26 717.528C1546.03 724.975 1553.85 730.729 1559.28 737.33C1564.04 743.084 1566.93 749.685 1568.29 757.809C1569.14 762.378 1568.63 773.379 1567.44 777.949C1563.7 792.335 1555.21 803.844 1542.8 810.444C1540.93 811.46 1539.4 812.137 1539.23 812.137C1539.06 812.137 1539.74 810.444 1540.76 808.414C1544.84 799.782 1545.35 791.489 1542.29 782.18C1540.42 776.426 1536.51 769.487 1528.7 757.809C1519.35 744.269 1517.14 740.715 1514.76 735.807Z" fill="white"/>
<path d="M1388.16 787.596C1400.74 777.103 1416.2 769.656 1430.48 767.287C1436.59 766.271 1446.79 766.61 1452.4 768.133C1461.4 770.502 1469.56 775.58 1473.81 781.842C1477.89 787.935 1479.76 793.181 1481.63 804.859C1482.31 809.429 1483.16 814.168 1483.33 815.183C1484.69 821.276 1487.4 826.015 1490.8 828.554C1496.07 832.446 1505.25 832.616 1514.25 829.231C1515.78 828.723 1517.14 828.215 1517.14 828.385C1517.48 828.723 1512.89 831.769 1509.84 833.293C1505.59 835.493 1502.19 836.17 1497.6 836.17C1489.44 836.17 1482.48 831.939 1476.87 823.476C1475.68 821.784 1473.3 816.876 1471.26 812.306C1465.31 798.597 1462.25 794.535 1455.29 789.966C1449.17 786.073 1441.35 785.227 1435.4 788.104C1427.59 791.827 1425.55 801.813 1430.99 807.906C1433.2 810.444 1437.27 812.475 1440.67 812.983C1446.96 813.829 1452.4 808.921 1452.4 802.659C1452.4 798.597 1450.87 796.228 1446.79 794.366C1441.35 791.997 1435.4 794.704 1435.57 799.951C1435.57 802.151 1436.59 803.505 1438.8 804.521C1440.16 805.198 1440.16 805.198 1439.14 805.029C1434.21 804.013 1433.03 797.92 1436.93 794.027C1441.69 789.289 1451.72 791.32 1455.12 797.92C1456.48 800.628 1456.65 806.044 1455.46 809.429C1452.57 816.876 1444.41 820.768 1436.08 818.568C1430.48 817.045 1428.1 815.522 1421.3 808.583C1409.4 796.397 1404.82 794.027 1387.82 791.489L1384.59 790.981L1388.16 787.596Z" fill="white"/>
<path fill-rule="evenodd" clip-rule="evenodd" d="M1298.78 515.278C1338.37 563.174 1399.38 637.643 1402.44 641.705C1404.99 645.09 1403.97 648.305 1399.72 650.675C1397.34 652.029 1392.41 653.383 1390.03 653.383C1387.31 653.383 1384.08 652.029 1381.88 649.829C1380.35 648.305 1373.72 638.658 1358.76 615.472C1347.38 597.701 1337.69 582.976 1337.52 582.807C1336.84 582.469 1336.84 582.469 1357.57 619.364C1370.66 642.551 1374.91 650.844 1374.91 651.86C1374.91 654.06 1374.23 655.245 1371.51 658.291C1366.92 663.368 1364.88 669.123 1363.35 681.139C1361.65 694.51 1357.07 703.988 1343.98 720.066C1336.33 729.544 1335.14 731.236 1333.27 735.129C1330.9 739.868 1330.22 742.576 1329.88 748.669C1329.54 755.1 1330.22 759.162 1332.08 765.255C1333.78 770.671 1335.65 774.225 1340.24 781.164C1344.15 787.257 1346.53 791.827 1346.53 793.519C1346.53 794.873 1346.87 794.873 1352.99 793.519C1367.6 790.134 1379.67 784.38 1386.29 777.271C1390.37 772.871 1391.39 770.502 1391.39 764.409C1391.39 760.516 1391.22 759.67 1390.2 757.3C1388.5 753.577 1385.27 750.53 1378.31 745.792C1369.13 739.529 1365.22 734.452 1364.2 727.682C1363.35 721.928 1364.37 718.035 1369.47 707.373C1374.74 696.372 1376.1 691.802 1376.95 680.632C1377.46 673.523 1378.31 670.646 1380.35 668.446C1382.56 666.076 1384.42 665.23 1389.69 664.553C1398.36 663.368 1403.97 661.168 1408.39 656.937C1412.29 653.383 1413.99 649.829 1414.16 644.582L1414.33 640.689L1412.12 638.32C1404.14 629.181 1293.51 508 1293 508C1292.83 508 1295.55 511.216 1298.78 515.278ZM1350.95 755.946C1352.82 752.731 1351.8 748.669 1348.74 746.638C1345.85 744.776 1341.43 745.622 1341.43 748.161C1341.43 748.838 1341.77 749.515 1342.79 749.853C1344.32 750.7 1344.49 751.546 1343.3 753.408C1342.11 755.269 1342.11 756.962 1343.64 758.147C1346.02 760.008 1349.25 758.993 1350.95 755.946Z" fill="white"/>
<path fill-rule="evenodd" clip-rule="evenodd" d="M1419.77 666.923C1415.69 668.107 1411.79 672.508 1410.6 676.908C1409.92 679.616 1410.26 684.524 1411.45 686.047C1413.32 688.417 1415.01 689.094 1419.77 689.094C1429.12 689.094 1437.11 685.032 1437.96 680.124C1438.81 676.062 1435.24 670.477 1430.31 667.938C1427.76 666.584 1422.49 666.076 1419.77 666.923ZM1430.65 675.385C1432.01 673.354 1431.5 671.154 1428.95 669.63C1424.36 666.753 1417.39 669.123 1417.39 673.523C1417.39 675.723 1420.96 678.093 1424.36 678.093C1426.57 678.093 1429.63 676.739 1430.65 675.385Z" fill="white"/>
</g>
<g opacity="0.5" clip-path="url(#clip11_72_132)">
<path d="M1774.15 582.638C1770.59 582.13 1770.42 581.961 1772.11 581.792C1775.34 581.284 1782.82 581.961 1788.09 583.146C1800.32 586.023 1811.37 593.47 1823.1 606.502L1826.15 610.056L1830.57 609.379C1849.44 606.332 1868.81 608.702 1884.95 616.149C1889.37 618.18 1896.34 622.242 1897.19 623.257C1897.53 623.596 1898.04 625.796 1898.38 627.996C1899.57 635.951 1899.06 641.874 1896.51 646.444C1895.15 648.983 1895.15 649.66 1896 651.86C1896.68 653.552 1898.72 654.737 1900.59 654.737C1904.66 654.737 1908.91 648.306 1910.95 639.336L1911.8 635.781L1913.33 637.474C1922 647.121 1928.79 660.491 1929.81 669.969L1930.15 672.508L1928.62 670.308C1926.08 666.415 1923.7 663.876 1920.47 661.676C1914.69 657.783 1908.57 656.599 1892.43 655.752C1877.81 654.906 1869.49 653.721 1861.33 651.014C1847.4 646.444 1840.26 640.52 1823.78 618.687C1816.47 609.04 1811.88 603.794 1807.29 599.393C1797.27 589.746 1787.24 584.669 1774.15 582.638Z" fill="white"/>
<path d="M1900.76 604.132C1901.1 597.7 1901.95 593.469 1903.82 589.576C1904.5 588.053 1905.18 586.699 1905.35 586.699C1905.52 586.699 1905.18 587.884 1904.67 589.238C1903.31 592.961 1903.14 598.208 1903.99 604.132C1905.18 611.748 1905.69 612.763 1913.85 621.056C1917.59 624.949 1922.01 629.857 1923.7 631.888L1926.59 635.611L1923.7 632.904C1920.14 629.519 1911.98 623.087 1910.11 622.241C1908.92 621.564 1908.75 621.564 1907.9 622.41C1907.22 623.087 1907.05 624.103 1907.05 629.011C1906.88 636.627 1905.86 641.366 1903.31 646.274C1901.95 648.813 1901.78 648.305 1902.97 645.428C1903.82 643.228 1903.99 642.212 1903.99 634.935C1903.99 620.21 1902.29 616.656 1891.93 610.732C1889.38 609.209 1884.96 607.009 1882.41 605.824C1879.69 604.639 1877.65 603.624 1877.82 603.624C1878.16 603.285 1888.19 606.163 1892.1 607.855C1898.04 610.225 1899.06 610.394 1899.74 610.225C1900.25 609.717 1900.59 608.363 1900.76 604.132Z" fill="white"/>
<path d="M1781.12 629.349C1773.98 619.533 1769.4 604.301 1770.41 592.961L1770.75 589.407L1772.45 589.746C1775.51 590.253 1780.78 592.284 1783.33 593.808C1790.13 597.87 1793.19 603.455 1796.07 617.333C1796.92 621.395 1798.11 626.134 1798.62 627.657C1799.47 630.196 1802.7 636.119 1805.42 639.843C1807.29 642.551 1806.1 643.905 1801.85 643.566C1795.4 642.889 1786.73 636.966 1781.12 629.349Z" fill="white"/>
<path d="M1892.09 702.972C1858.44 689.433 1846.55 677.755 1846.55 657.953C1846.55 655.076 1846.72 652.706 1846.72 652.706C1846.89 652.706 1848.08 653.722 1849.61 654.906C1856.4 660.322 1864.05 662.692 1885.29 665.738C1897.7 667.6 1904.83 668.954 1911.29 671.154C1931.85 677.924 1944.6 691.802 1947.66 710.588C1948.51 716.004 1948 726.328 1946.64 731.744C1945.45 735.975 1942.05 743.761 1941.2 743.93C1941.03 743.93 1940.69 743.084 1940.69 741.73C1940.35 734.621 1936.78 727.852 1930.83 722.605C1923.7 716.512 1914.52 711.942 1892.09 702.972Z" fill="white"/>
<path d="M1868.3 708.557C1867.96 706.019 1867.11 702.803 1866.6 701.449L1865.75 698.91L1867.28 700.772C1869.49 703.311 1871.19 706.357 1872.72 710.588C1873.91 713.804 1873.91 714.819 1873.91 720.066C1873.91 725.143 1873.74 726.328 1872.72 729.205C1871.02 733.775 1868.98 736.991 1865.58 740.545C1859.46 746.807 1851.48 750.192 1840.09 751.715C1838.05 751.884 1832.27 752.392 1827.18 752.731C1814.43 753.408 1805.93 754.762 1798.29 757.469C1797.27 757.808 1796.25 758.146 1796.08 757.977C1795.74 757.639 1801.01 754.592 1805.25 752.561C1811.2 749.684 1817.32 748.161 1830.74 745.791C1837.37 744.776 1844.17 743.422 1845.87 742.745C1862.69 737.498 1871.02 724.466 1868.3 708.557Z" fill="white"/>
<path d="M1883.76 735.807C1879.34 726.16 1878.32 717.02 1880.7 708.389C1881.04 707.543 1881.38 706.696 1881.72 706.696C1882.06 706.696 1883.08 707.204 1884.1 707.881C1886.14 709.235 1890.39 711.604 1901.26 717.528C1915.03 724.975 1922.85 730.729 1928.28 737.33C1933.04 743.084 1935.93 749.685 1937.29 757.809C1938.14 762.378 1937.63 773.379 1936.44 777.949C1932.7 792.335 1924.21 803.844 1911.8 810.444C1909.93 811.46 1908.4 812.137 1908.23 812.137C1908.06 812.137 1908.74 810.444 1909.76 808.414C1913.84 799.782 1914.35 791.489 1911.29 782.18C1909.42 776.426 1905.51 769.487 1897.7 757.809C1888.35 744.269 1886.14 740.715 1883.76 735.807Z" fill="white"/>
<path d="M1757.16 787.596C1769.74 777.103 1785.2 769.656 1799.48 767.287C1805.59 766.271 1815.79 766.61 1821.4 768.133C1830.4 770.502 1838.56 775.58 1842.81 781.842C1846.89 787.935 1848.76 793.181 1850.63 804.859C1851.31 809.429 1852.16 814.168 1852.33 815.183C1853.69 821.276 1856.4 826.015 1859.8 828.554C1865.07 832.446 1874.25 832.616 1883.25 829.231C1884.78 828.723 1886.14 828.215 1886.14 828.385C1886.48 828.723 1881.89 831.769 1878.84 833.293C1874.59 835.493 1871.19 836.17 1866.6 836.17C1858.44 836.17 1851.48 831.939 1845.87 823.476C1844.68 821.784 1842.3 816.876 1840.26 812.306C1834.31 798.597 1831.25 794.535 1824.29 789.966C1818.17 786.073 1810.35 785.227 1804.4 788.104C1796.59 791.827 1794.55 801.813 1799.99 807.906C1802.2 810.444 1806.27 812.475 1809.67 812.983C1815.96 813.829 1821.4 808.921 1821.4 802.659C1821.4 798.597 1819.87 796.228 1815.79 794.366C1810.35 791.997 1804.4 794.704 1804.57 799.951C1804.57 802.151 1805.59 803.505 1807.8 804.521C1809.16 805.198 1809.16 805.198 1808.14 805.029C1803.21 804.013 1802.03 797.92 1805.93 794.027C1810.69 789.289 1820.72 791.32 1824.12 797.92C1825.48 800.628 1825.65 806.044 1824.46 809.429C1821.57 816.876 1813.41 820.768 1805.08 818.568C1799.48 817.045 1797.1 815.522 1790.3 808.583C1778.4 796.397 1773.82 794.027 1756.82 791.489L1753.59 790.981L1757.16 787.596Z" fill="white"/>
<path fill-rule="evenodd" clip-rule="evenodd" d="M1667.78 515.278C1707.37 563.174 1768.38 637.643 1771.44 641.705C1773.99 645.09 1772.97 648.305 1768.72 650.675C1766.34 652.029 1761.41 653.383 1759.03 653.383C1756.31 653.383 1753.08 652.029 1750.88 649.829C1749.35 648.305 1742.72 638.658 1727.76 615.472C1716.38 597.701 1706.69 582.976 1706.52 582.807C1705.84 582.469 1705.84 582.469 1726.57 619.364C1739.66 642.551 1743.91 650.844 1743.91 651.86C1743.91 654.06 1743.23 655.245 1740.51 658.291C1735.92 663.368 1733.88 669.123 1732.35 681.139C1730.65 694.51 1726.07 703.988 1712.98 720.066C1705.33 729.544 1704.14 731.236 1702.27 735.129C1699.9 739.868 1699.22 742.576 1698.88 748.669C1698.54 755.1 1699.22 759.162 1701.08 765.255C1702.78 770.671 1704.65 774.225 1709.24 781.164C1713.15 787.257 1715.53 791.827 1715.53 793.519C1715.53 794.873 1715.87 794.873 1721.99 793.519C1736.6 790.134 1748.67 784.38 1755.29 777.271C1759.37 772.871 1760.39 770.502 1760.39 764.409C1760.39 760.516 1760.22 759.67 1759.2 757.3C1757.5 753.577 1754.27 750.53 1747.31 745.792C1738.13 739.529 1734.22 734.452 1733.2 727.682C1732.35 721.928 1733.37 718.035 1738.47 707.373C1743.74 696.372 1745.1 691.802 1745.95 680.632C1746.46 673.523 1747.31 670.646 1749.35 668.446C1751.56 666.076 1753.42 665.23 1758.69 664.553C1767.36 663.368 1772.97 661.168 1777.39 656.937C1781.29 653.383 1782.99 649.829 1783.16 644.582L1783.33 640.689L1781.12 638.32C1773.14 629.181 1662.51 508 1662 508C1661.83 508 1664.55 511.216 1667.78 515.278ZM1719.95 755.946C1721.82 752.731 1720.8 748.669 1717.74 746.638C1714.85 744.776 1710.43 745.622 1710.43 748.161C1710.43 748.838 1710.77 749.515 1711.79 749.853C1713.32 750.7 1713.49 751.546 1712.3 753.408C1711.11 755.269 1711.11 756.962 1712.64 758.147C1715.02 760.008 1718.25 758.993 1719.95 755.946Z" fill="white"/>
<path fill-rule="evenodd" clip-rule="evenodd" d="M1788.77 666.923C1784.69 668.107 1780.79 672.508 1779.6 676.908C1778.92 679.616 1779.26 684.524 1780.45 686.047C1782.32 688.417 1784.01 689.094 1788.77 689.094C1798.12 689.094 1806.11 685.032 1806.96 680.124C1807.81 676.062 1804.24 670.477 1799.31 667.938C1796.76 666.584 1791.49 666.076 1788.77 666.923ZM1799.65 675.385C1801.01 673.354 1800.5 671.154 1797.95 669.63C1793.36 666.753 1786.39 669.123 1786.39 673.523C1786.39 675.723 1789.96 678.093 1793.36 678.093C1795.57 678.093 1798.63 676.739 1799.65 675.385Z" fill="white"/>
</g>
</g>
<defs>
<clipPath id="clip0_72_132">
<rect width="1920" height="1080" fill="white"/>
</clipPath>
<clipPath id="clip1_72_132">
<rect width="286" height="328" fill="white" transform="translate(94 180)"/>
</clipPath>
<clipPath id="clip2_72_132">
<rect width="286" height="328" fill="white" transform="translate(463 180)"/>
</clipPath>
<clipPath id="clip3_72_132">
<rect width="286" height="328" fill="white" transform="translate(832 180)"/>
</clipPath>
<clipPath id="clip4_72_132">
<rect width="286" height="328" fill="white" transform="translate(1201 180)"/>
</clipPath>
<clipPath id="clip5_72_132">
<rect width="286" height="328" fill="white" transform="translate(1570 180)"/>
</clipPath>
<clipPath id="clip6_72_132">
<rect width="286" height="328" fill="white" transform="translate(-183 508)"/>
</clipPath>
<clipPath id="clip7_72_132">
<rect width="286" height="328" fill="white" transform="translate(186 508)"/>
</clipPath>
<clipPath id="clip8_72_132">
<rect width="286" height="328" fill="white" transform="translate(555 508)"/>
</clipPath>
<clipPath id="clip9_72_132">
<rect width="286" height="328" fill="white" transform="translate(924 508)"/>
</clipPath>
<clipPath id="clip10_72_132">
<rect width="286" height="328" fill="white" transform="translate(1293 508)"/>
</clipPath>
<clipPath id="clip11_72_132">
<rect width="286" height="328" fill="white" transform="translate(1662 508)"/>
</clipPath>
</defs>
</svg>
